<svg xmlns="http://www.w3.org/2000/svg" viewBox="0 0 240 240" width="240" height="240">
  <polygon points="0,0 60,0 60,60 0,60" fill="#F8F8F8" stroke="#333333" stroke-width="0.5" data-role="block-cell" data-shade="block-cell" />
  <polygon points="60,60 120,60 120,120 60,120" fill="#F8F8F8" stroke="#333333" stroke-width="0.5" data-role="block-cell" data-shade="block-cell" />
  <polygon points="120,120 180,120 180,180 120,180" fill="#F8F8F8" stroke="#333333" stroke-width="0.5" data-role="block-cell" data-shade="block-cell" />
  <polygon points="180,180 240,180 240,240 180,240" fill="#F8F8F8" stroke="#333333" stroke-width="0.5" data-role="block-cell" data-shade="block-cell" />
  <polygon points="180,0 240,0 240,60 180,60" fill="#E0E0E0" stroke="#333333" stroke-width="0.5" data-role="sashing" data-shade="sashing" />
  <polygon points="120,60 180,60 180,120 120,120" fill="#E0E0E0" stroke="#333333" stroke-width="0.5" data-role="sashing" data-shade="sashing" />
  <polygon points="60,120 120,120 120,180 60,180" fill="#E0E0E0" stroke="#333333" stroke-width="0.5" data-role="sashing" data-shade="sashing" />
  <polygon points="0,180 60,180 60,240 0,240" fill="#E0E0E0" stroke="#333333" stroke-width="0.5" data-role="sashing" data-shade="sashing" />
</svg>