<svg xmlns="http://www.w3.org/2000/svg" viewBox="0 0 270 270" width="270" height="270">
  <rect x="60" y="0" width="10" height="270" fill="#E0E0E0" stroke="#333333" stroke-width="0.5" data-role="sashing" data-shade="sashing" />
  <rect x="130" y="0" width="10" height="270" fill="#E0E0E0" stroke="#333333" stroke-width="0.5" data-role="sashing" data-shade="sashing" />
  <rect x="200" y="0" width="10" height="270" fill="#E0E0E0" stroke="#333333" stroke-width="0.5" data-role="sashing" data-shade="sashing" />
  <rect x="0" y="60" width="270" height="10" fill="#E0E0E0" stroke="#333333" stroke-width="0.5" data-role="sashing" data-shade="sashing" />
  <rect x="0" y="130" width="270" height="10" fill="#E0E0E0" stroke="#333333" stroke-width="0.5" data-role="sashing" data-shade="sashing" />
  <rect x="0" y="200" width="270" height="10" fill="#E0E0E0" stroke="#333333" stroke-width="0.5" data-role="sashing" data-shade="sashing" />
  <rect x="60" y="60" width="10" height="10" fill="#D0D0D0" stroke="#333333" stroke-width="0.5" data-role="cornerstone" data-shade="cornerstone" />
  <rect x="130" y="60" width="10" height="10" fill="#D0D0D0" stroke="#333333" stroke-width="0.5" data-role="cornerstone" data-shade="cornerstone" />
  <rect x="200" y="60" width="10" height="10" fill="#D0D0D0" stroke="#333333" stroke-width="0.5" data-role="cornerstone" data-shade="cornerstone" />
  <rect x="60" y="130" width="10" height="10" fill="#D0D0D0" stroke="#333333" stroke-width="0.5" data-role="cornerstone" data-shade="cornerstone" />
  <rect x="130" y="130" width="10" height="10" fill="#D0D0D0" stroke="#333333" stroke-width="0.5" data-role="cornerstone" data-shade="cornerstone" />
  <rect x="200" y="130" width="10" height="10" fill="#D0D0D0" stroke="#333333" stroke-width="0.5" data-role="cornerstone" data-shade="cornerstone" />
  <rect x="60" y="200" width="10" height="10" fill="#D0D0D0" stroke="#333333" stroke-width="0.5" data-role="cornerstone" data-shade="cornerstone" />
  <rect x="130" y="200" width="10" height="10" fill="#D0D0D0" stroke="#333333" stroke-width="0.5" data-role="cornerstone" data-shade="cornerstone" />
  <rect x="200" y="200" width="10" height="10" fill="#D0D0D0" stroke="#333333" stroke-width="0.5" data-role="cornerstone" data-shade="cornerstone" />
  <rect x="0" y="0" width="60" height="60" fill="#F8F8F8" stroke="#333333" stroke-width="0.5" data-role="block-cell" data-shade="block-cell" />
  <rect x="70" y="0" width="60" height="60" fill="#F8F8F8" stroke="#333333" stroke-width="0.5" data-role="block-cell" data-shade="block-cell" />
  <rect x="140" y="0" width="60" height="60" fill="#F8F8F8" stroke="#333333" stroke-width="0.5" data-role="block-cell" data-shade="block-cell" />
  <rect x="210" y="0" width="60" height="60" fill="#F8F8F8" stroke="#333333" stroke-width="0.5" data-role="block-cell" data-shade="block-cell" />
  <rect x="0" y="70" width="60" height="60" fill="#F8F8F8" stroke="#333333" stroke-width="0.5" data-role="block-cell" data-shade="block-cell" />
  <rect x="70" y="70" width="60" height="60" fill="#F8F8F8" stroke="#333333" stroke-width="0.5" data-role="block-cell" data-shade="block-cell" />
  <rect x="140" y="70" width="60" height="60" fill="#F8F8F8" stroke="#333333" stroke-width="0.5" data-role="block-cell" data-shade="block-cell" />
  <rect x="210" y="70" width="60" height="60" fill="#F8F8F8" stroke="#333333" stroke-width="0.5" data-role="block-cell" data-shade="block-cell" />
  <rect x="0" y="140" width="60" height="60" fill="#F8F8F8" stroke="#333333" stroke-width="0.5" data-role="block-cell" data-shade="block-cell" />
  <rect x="70" y="140" width="60" height="60" fill="#F8F8F8" stroke="#333333" stroke-width="0.5" data-role="block-cell" data-shade="block-cell" />
  <rect x="140" y="140" width="60" height="60" fill="#F8F8F8" stroke="#333333" stroke-width="0.5" data-role="block-cell" data-shade="block-cell" />
  <rect x="210" y="140" width="60" height="60" fill="#F8F8F8" stroke="#333333" stroke-width="0.5" data-role="block-cell" data-shade="block-cell" />
  <rect x="0" y="210" width="60" height="60" fill="#F8F8F8" stroke="#333333" stroke-width="0.5" data-role="block-cell" data-shade="block-cell" />
  <rect x="70" y="210" width="60" height="60" fill="#F8F8F8" stroke="#333333" stroke-width="0.5" data-role="block-cell" data-shade="block-cell" />
  <rect x="140" y="210" width="60" height="60" fill="#F8F8F8" stroke="#333333" stroke-width="0.5" data-role="block-cell" data-shade="block-cell" />
  <rect x="210" y="210" width="60" height="60" fill="#F8F8F8" stroke="#333333" stroke-width="0.5" data-role="block-cell" data-shade="block-cell" />
</svg>
