<?xml version="1.0" encoding="UTF-8"?>
<svg xmlns="http://www.w3.org/2000/svg" viewBox="0 0 300 300" width="300" height="300">
  <polygon points="0,0 100.0,0 0,100.0" fill="#D0D0D0" stroke="#333" stroke-width="1"/>
  <polygon points="100.0,0 100.0,100.0 0,100.0" fill="#B0B0B0" stroke="#333" stroke-width="1"/>
  <polygon points="200.0,0 300.0,0 300.0,100.0" fill="#D0D0D0" stroke="#333" stroke-width="1"/>
  <polygon points="200.0,0 300.0,100.0 200.0,100.0" fill="#B0B0B0" stroke="#333" stroke-width="1"/>
  <polygon points="0,200.0 100.0,200.0 0,300.0" fill="#D0D0D0" stroke="#333" stroke-width="1"/>
  <polygon points="100.0,200.0 100.0,300.0 0,300.0" fill="#B0B0B0" stroke="#333" stroke-width="1"/>
  <polygon points="200.0,300.0 300.0,300.0 300.0,200.0" fill="#D0D0D0" stroke="#333" stroke-width="1"/>
  <polygon points="200.0,200.0 300.0,200.0 200.0,300.0" fill="#B0B0B0" stroke="#333" stroke-width="1"/>
  <rect x="100.0" y="100.0" width="100.0" height="100.0" fill="#505050" stroke="#333" stroke-width="1"/>
  <rect x="130.0" y="0" width="40.0" height="100.0" fill="#E0E0E0" stroke="#333" stroke-width="1"/>
  <rect x="130.0" y="200.0" width="40.0" height="100.0" fill="#E0E0E0" stroke="#333" stroke-width="1"/>
  <rect x="0" y="130.0" width="100.0" height="40.0" fill="#E0E0E0" stroke="#333" stroke-width="1"/>
  <rect x="200.0" y="130.0" width="100.0" height="40.0" fill="#E0E0E0" stroke="#333" stroke-width="1"/>
</svg>