<?xml version="1.0" encoding="UTF-8"?>
<svg xmlns="http://www.w3.org/2000/svg" viewBox="0 0 300 300" width="300" height="300">
  <!-- Top-left HST: light outer corner, dark inner -->
  <polygon points="0,0 100,0 0,100" fill="#F8F8F8" stroke="#333" stroke-width="1" data-shade="background" data-role="patch"/>
  <polygon points="100,0 100,100 0,100" fill="#505050" stroke="#333" stroke-width="1" data-shade="dark" data-role="patch"/>
  <!-- Top-center: light square -->
  <rect x="100" y="0" width="100" height="100" fill="#F8F8F8" stroke="#333" stroke-width="1" data-shade="background" data-role="patch"/>
  <!-- Top-right HST: light outer corner, dark inner -->
  <polygon points="200,0 300,0 300,100" fill="#F8F8F8" stroke="#333" stroke-width="1" data-shade="background" data-role="patch"/>
  <polygon points="200,0 200,100 300,100" fill="#505050" stroke="#333" stroke-width="1" data-shade="dark" data-role="patch"/>
  <!-- Middle-left: light square -->
  <rect x="0" y="100" width="100" height="100" fill="#F8F8F8" stroke="#333" stroke-width="1" data-shade="background" data-role="patch"/>
  <!-- Center: dark square -->
  <rect x="100" y="100" width="100" height="100" fill="#505050" stroke="#333" stroke-width="1" data-shade="dark" data-role="patch"/>
  <!-- Middle-right: light square -->
  <rect x="200" y="100" width="100" height="100" fill="#F8F8F8" stroke="#333" stroke-width="1" data-shade="background" data-role="patch"/>
  <!-- Bottom-left HST: light outer corner, dark inner -->
  <polygon points="0,200 100,200 100,300" fill="#505050" stroke="#333" stroke-width="1" data-shade="dark" data-role="patch"/>
  <polygon points="0,200 100,300 0,300" fill="#F8F8F8" stroke="#333" stroke-width="1" data-shade="background" data-role="patch"/>
  <!-- Bottom-center: light square -->
  <rect x="100" y="200" width="100" height="100" fill="#F8F8F8" stroke="#333" stroke-width="1" data-shade="background" data-role="patch"/>
  <!-- Bottom-right HST: light outer corner, dark inner -->
  <polygon points="200,200 300,200 200,300" fill="#505050" stroke="#333" stroke-width="1" data-shade="dark" data-role="patch"/>
  <polygon points="300,200 300,300 200,300" fill="#F8F8F8" stroke="#333" stroke-width="1" data-shade="background" data-role="patch"/>
</svg>
