<?xml version="1.0" encoding="UTF-8"?>
<svg xmlns="http://www.w3.org/2000/svg" viewBox="0 0 300 300" width="300" height="300">
  <rect x="0.0" y="0.0" width="100.0" height="100.0" fill="#F8F8F8" stroke="#333" stroke-width="1"/>
  <rect x="200.0" y="0.0" width="100.0" height="100.0" fill="#F8F8F8" stroke="#333" stroke-width="1"/>
  <rect x="0.0" y="200.0" width="100.0" height="100.0" fill="#F8F8F8" stroke="#333" stroke-width="1"/>
  <rect x="200.0" y="200.0" width="100.0" height="100.0" fill="#F8F8F8" stroke="#333" stroke-width="1"/>
  <rect x="100.0" y="100.0" width="100.0" height="100.0" fill="#505050" stroke="#333" stroke-width="1"/>
  <polygon points="100.0,0 200.0,0 150.0,100.0" fill="#D0D0D0" stroke="#333" stroke-width="1"/>
  <polygon points="100.0,0 150.0,100.0 100.0,100.0" fill="#B0B0B0" stroke="#333" stroke-width="1"/>
  <polygon points="200.0,0 200.0,100.0 150.0,100.0" fill="#B0B0B0" stroke="#333" stroke-width="1"/>
  <polygon points="100.0,300 200.0,300 150.0,200.0" fill="#D0D0D0" stroke="#333" stroke-width="1"/>
  <polygon points="100.0,300 150.0,200.0 100.0,200.0" fill="#B0B0B0" stroke="#333" stroke-width="1"/>
  <polygon points="200.0,300 200.0,200.0 150.0,200.0" fill="#B0B0B0" stroke="#333" stroke-width="1"/>
  <polygon points="0,100.0 0,200.0 100.0,150.0" fill="#D0D0D0" stroke="#333" stroke-width="1"/>
  <polygon points="0,100.0 100.0,150.0 100.0,100.0" fill="#B0B0B0" stroke="#333" stroke-width="1"/>
  <polygon points="0,200.0 100.0,200.0 100.0,150.0" fill="#B0B0B0" stroke="#333" stroke-width="1"/>
  <polygon points="300,100.0 300,200.0 200.0,150.0" fill="#D0D0D0" stroke="#333" stroke-width="1"/>
  <polygon points="300,100.0 200.0,150.0 200.0,100.0" fill="#B0B0B0" stroke="#333" stroke-width="1"/>
  <polygon points="300,200.0 200.0,200.0 200.0,150.0" fill="#B0B0B0" stroke="#333" stroke-width="1"/>
</svg>