<?xml version="1.0" encoding="UTF-8"?>
<svg xmlns="http://www.w3.org/2000/svg" viewBox="0 0 300 300" width="300" height="300">
  <rect x="0" y="0" width="300" height="300" fill="#F8F8F8" stroke="#333" stroke-width="1"/>
  <polygon points="150.00017911731106,15.000000000118831 172.9610611028332,94.56725089775938 245.45947878769556,54.54064786736973 205.43277956681055,127.03901244507561 285.0,150.0 205.43277956681055,172.9609875549244 245.45947878769556,245.45935213263027 172.9610611028332,205.43274910224062 150.00017911731106,284.9999999998812 127.03908599302486,205.43281003128286 54.54077452260306,245.4596054425928 94.56728136242685,172.96113465070164 15.000000000475296,150.0003582346221 94.56715950434241,127.03915954101453 54.54026790267807,54.54090117800439 127.03879180147035,94.56731182719193" fill="#D0D0D0" stroke="#333" stroke-width="1"/>
  <polygon points="178.70132637854152,80.70906362219921 171.2132175083768,128.78681063719327 219.29097445851318,121.2987655563445 180.0,150.0 219.29097445851318,178.7012344436555 171.2132175083768,171.21318936280673 178.70132637854152,219.2909363778008 150.0000398038469,179.9999999999736 121.29885749128107,219.29101253910358 128.7868387828007,171.2132456539095 80.70910170303358,178.70141831337705 120.00000000010562,150.0000796076938 80.70894938042802,121.29894942626815 128.78672620059513,128.78686692844542 121.29848975183795,80.70913978398993 149.9998805884593,120.00000000023765" fill="#505050" stroke="#333" stroke-width="1"/>
  <circle cx="150.0" cy="150.0" r="18.0" fill="#E0E0E0" stroke="#333" stroke-width="1"/>
</svg>