<?xml version="1.0" encoding="UTF-8"?>
<svg xmlns="http://www.w3.org/2000/svg" viewBox="0 0 300 300" width="300" height="300">
  <rect x="0" y="0" width="300" height="300" fill="#F8F8F8" stroke="#333" stroke-width="1"/>
  <polygon points="150.0,150.0 274.5851558199413,131.1707953083265 274.5851558199413,168.8292046916735" fill="#D0D0D0" stroke="#333" stroke-width="1"/>
  <polygon points="150.0,150.0 251.40931644663164,224.78068291896597 224.7808174682637,251.4092172279139" fill="#B0B0B0" stroke="#333" stroke-width="1"/>
  <polygon points="150.0,150.0 168.82936999060587,274.58513083733897 131.17096060729202,274.5851808023244" fill="#D0D0D0" stroke="#333" stroke-width="1"/>
  <polygon points="150.0,150.0 75.2194516304634,251.40941566517085 48.59088199098238,224.7809520174298" fill="#B0B0B0" stroke="#333" stroke-width="1"/>
  <polygon points="150.0,150.0 25.41489414548269,168.8295352895051 25.414794215511932,131.17112590629068" fill="#D0D0D0" stroke="#333" stroke-width="1"/>
  <polygon points="150.0,150.0 48.590485116468514,75.21958618002435 75.21891343353586,48.590981210057066" fill="#B0B0B0" stroke="#333" stroke-width="1"/>
  <polygon points="150.0,150.0 131.17029941162872,25.414919128523692 168.8287087946775,25.414769233567526" fill="#D0D0D0" stroke="#333" stroke-width="1"/>
  <polygon points="150.0,150.0 224.7802792702829,48.59038589828627 251.4089195706896,75.21877888463304" fill="#B0B0B0" stroke="#333" stroke-width="1"/>
  <polygon points="183.25966774008631,163.77659253295462 163.77663666169994,183.25964946134437 136.2234515958149,183.2596860187697 116.74036881745612,163.77668079042098 116.74029570260545,136.2234957246087 136.22327508088222,116.74038709631516 163.77646014657324,116.74027742403916 183.25959462476726,136.2232309522097" fill="#505050" stroke="#333" stroke-width="1"/>
</svg>