<?xml version="1.0" encoding="UTF-8"?>
<svg xmlns="http://www.w3.org/2000/svg" viewBox="0 0 300 300" width="300" height="300">
  <rect x="0" y="0" width="300" height="300" fill="#F8F8F8" stroke="#333" stroke-width="1"/>
  <polygon points="150.0,33.333333333333336 207.73333333333335,50.0 150.0,66.66666666666667 92.26666666666667,50.0" fill="#E0E0E0" stroke="#333" stroke-width="1"/>
  <polygon points="92.26666666666667,50.0 150.0,66.66666666666667 150.0,116.66666666666667 92.26666666666667,100.0" fill="#D0D0D0" stroke="#333" stroke-width="1"/>
  <polygon points="150.0,66.66666666666667 207.73333333333335,50.0 207.73333333333335,100.0 150.0,116.66666666666667" fill="#B0B0B0" stroke="#333" stroke-width="1"/>
  <polygon points="92.26666666666667,133.33333333333334 150.0,150.00000000000003 92.26666666666667,166.66666666666669 34.53333333333333,150.00000000000003" fill="#E0E0E0" stroke="#333" stroke-width="1"/>
  <polygon points="34.53333333333333,150.00000000000003 92.26666666666667,166.66666666666669 92.26666666666667,216.66666666666669 34.53333333333333,200.00000000000003" fill="#D0D0D0" stroke="#333" stroke-width="1"/>
  <polygon points="92.26666666666667,166.66666666666669 150.0,150.00000000000003 150.0,200.00000000000003 92.26666666666667,216.66666666666669" fill="#B0B0B0" stroke="#333" stroke-width="1"/>
  <polygon points="207.73333333333335,133.33333333333334 265.4666666666667,150.00000000000003 207.73333333333335,166.66666666666669 150.0,150.00000000000003" fill="#E0E0E0" stroke="#333" stroke-width="1"/>
  <polygon points="150.0,150.00000000000003 207.73333333333335,166.66666666666669 207.73333333333335,216.66666666666669 150.0,200.00000000000003" fill="#D0D0D0" stroke="#333" stroke-width="1"/>
  <polygon points="207.73333333333335,166.66666666666669 265.4666666666667,150.00000000000003 265.4666666666667,200.00000000000003 207.73333333333335,216.66666666666669" fill="#B0B0B0" stroke="#333" stroke-width="1"/>
</svg>