<?xml version="1.0" encoding="UTF-8"?>
<svg xmlns="http://www.w3.org/2000/svg" viewBox="0 0 300 300" width="300" height="300">
  <rect x="0" y="0" width="300" height="300" fill="#F8F8F8" stroke="#333" stroke-width="1"/>
  <polygon points="150.00004776461628,114.00000000003169 174.58152404244035,26.421083206920258 163.77663666169994,116.74035053865563" fill="#D0D0D0" stroke="#333" stroke-width="1"/>
  <polygon points="163.77663666169994,116.74035053865563 220.00193623662983,45.23488689872562 175.45586101005216,124.54417276463192" fill="#B0B0B0" stroke="#333" stroke-width="1"/>
  <polygon points="175.45586101005216,124.54417276463192 254.7652059793939,79.9982027652492 183.25966774008631,136.22340746704538" fill="#D0D0D0" stroke="#333" stroke-width="1"/>
  <polygon points="183.25966774008631,136.22340746704538 273.5789494076116,125.41863992145743 186.0,150.0" fill="#B0B0B0" stroke="#333" stroke-width="1"/>
  <polygon points="186.0,150.0 273.5789494076116,174.58136007854256 183.25966774008631,163.77659253295462" fill="#D0D0D0" stroke="#333" stroke-width="1"/>
  <polygon points="183.25966774008631,163.77659253295462 254.7652059793939,220.0017972347508 175.45586101005216,175.45582723536808" fill="#B0B0B0" stroke="#333" stroke-width="1"/>
  <polygon points="175.45586101005216,175.45582723536808 220.00193623662983,254.76511310127438 163.77663666169994,183.25964946134437" fill="#D0D0D0" stroke="#333" stroke-width="1"/>
  <polygon points="163.77663666169994,183.25964946134437 174.58152404244035,273.57891679307977 150.00004776461628,185.9999999999683" fill="#B0B0B0" stroke="#333" stroke-width="1"/>
  <polygon points="150.00004776461628,185.9999999999683 125.41880388539846,273.578982021926 136.2234515958149,183.2596860187697" fill="#D0D0D0" stroke="#333" stroke-width="1"/>
  <polygon points="136.2234515958149,183.2596860187697 79.99834176725149,254.76529885732904 124.54420653936081,175.4558947846914" fill="#B0B0B0" stroke="#333" stroke-width="1"/>
  <polygon points="124.54420653936081,175.4558947846914 45.23497977702958,220.0020752383856 116.74036881745612,163.77668079042098" fill="#D0D0D0" stroke="#333" stroke-width="1"/>
  <polygon points="116.74036881745612,163.77668079042098 26.421115821669687,174.58168800629485 114.00000000012675,150.00009552923257" fill="#B0B0B0" stroke="#333" stroke-width="1"/>
  <polygon points="114.00000000012675,150.00009552923257 26.420985363977252,125.4189678493828 116.74029570260545,136.2234957246087" fill="#D0D0D0" stroke="#333" stroke-width="1"/>
  <polygon points="116.74029570260545,136.2234957246087 45.234608264920254,79.99848076937697 124.54407144071415,124.5442403141345" fill="#B0B0B0" stroke="#333" stroke-width="1"/>
  <polygon points="124.54407144071415,124.5442403141345 79.99778575998178,45.23507265551801 136.22327508088222,116.74038709631516" fill="#D0D0D0" stroke="#333" stroke-width="1"/>
  <polygon points="136.22327508088222,116.74038709631516 125.41814802989391,26.421148436636656 149.99985670615115,114.00000000028518" fill="#B0B0B0" stroke="#333" stroke-width="1"/>
  <circle cx="150.0" cy="150.0" r="36.0" fill="#505050" stroke="#333" stroke-width="1"/>
  <circle cx="150.0" cy="150.0" r="18.0" fill="#E0E0E0" stroke="#333" stroke-width="1"/>
</svg>