<?xml version="1.0" encoding="UTF-8"?>
<svg xmlns="http://www.w3.org/2000/svg" viewBox="0 0 300 300" width="300" height="300">
  <rect x="0.0" y="0.0" width="20.0" height="20.0" fill="#D0D0D0" stroke="#333" stroke-width="0.5"/>
  <rect x="20.0" y="0.0" width="20.0" height="20.0" fill="#B0B0B0" stroke="#333" stroke-width="0.5"/>
  <rect x="40.0" y="0.0" width="20.0" height="20.0" fill="#D0D0D0" stroke="#333" stroke-width="0.5"/>
  <rect x="0.0" y="20.0" width="20.0" height="20.0" fill="#B0B0B0" stroke="#333" stroke-width="0.5"/>
  <rect x="20.0" y="20.0" width="20.0" height="20.0" fill="#D0D0D0" stroke="#333" stroke-width="0.5"/>
  <rect x="40.0" y="20.0" width="20.0" height="20.0" fill="#B0B0B0" stroke="#333" stroke-width="0.5"/>
  <rect x="0.0" y="40.0" width="20.0" height="20.0" fill="#D0D0D0" stroke="#333" stroke-width="0.5"/>
  <rect x="20.0" y="40.0" width="20.0" height="20.0" fill="#B0B0B0" stroke="#333" stroke-width="0.5"/>
  <rect x="40.0" y="40.0" width="20.0" height="20.0" fill="#D0D0D0" stroke="#333" stroke-width="0.5"/>
  <rect x="60.0" y="0.0" width="60.0" height="60.0" fill="#E0E0E0" stroke="#333" stroke-width="1"/>
  <rect x="120.0" y="0.0" width="20.0" height="20.0" fill="#D0D0D0" stroke="#333" stroke-width="0.5"/>
  <rect x="140.0" y="0.0" width="20.0" height="20.0" fill="#B0B0B0" stroke="#333" stroke-width="0.5"/>
  <rect x="160.0" y="0.0" width="20.0" height="20.0" fill="#D0D0D0" stroke="#333" stroke-width="0.5"/>
  <rect x="120.0" y="20.0" width="20.0" height="20.0" fill="#B0B0B0" stroke="#333" stroke-width="0.5"/>
  <rect x="140.0" y="20.0" width="20.0" height="20.0" fill="#D0D0D0" stroke="#333" stroke-width="0.5"/>
  <rect x="160.0" y="20.0" width="20.0" height="20.0" fill="#B0B0B0" stroke="#333" stroke-width="0.5"/>
  <rect x="120.0" y="40.0" width="20.0" height="20.0" fill="#D0D0D0" stroke="#333" stroke-width="0.5"/>
  <rect x="140.0" y="40.0" width="20.0" height="20.0" fill="#B0B0B0" stroke="#333" stroke-width="0.5"/>
  <rect x="160.0" y="40.0" width="20.0" height="20.0" fill="#D0D0D0" stroke="#333" stroke-width="0.5"/>
  <rect x="180.0" y="0.0" width="60.0" height="60.0" fill="#E0E0E0" stroke="#333" stroke-width="1"/>
  <rect x="240.0" y="0.0" width="20.0" height="20.0" fill="#D0D0D0" stroke="#333" stroke-width="0.5"/>
  <rect x="260.0" y="0.0" width="20.0" height="20.0" fill="#B0B0B0" stroke="#333" stroke-width="0.5"/>
  <rect x="280.0" y="0.0" width="20.0" height="20.0" fill="#D0D0D0" stroke="#333" stroke-width="0.5"/>
  <rect x="240.0" y="20.0" width="20.0" height="20.0" fill="#B0B0B0" stroke="#333" stroke-width="0.5"/>
  <rect x="260.0" y="20.0" width="20.0" height="20.0" fill="#D0D0D0" stroke="#333" stroke-width="0.5"/>
  <rect x="280.0" y="20.0" width="20.0" height="20.0" fill="#B0B0B0" stroke="#333" stroke-width="0.5"/>
  <rect x="240.0" y="40.0" width="20.0" height="20.0" fill="#D0D0D0" stroke="#333" stroke-width="0.5"/>
  <rect x="260.0" y="40.0" width="20.0" height="20.0" fill="#B0B0B0" stroke="#333" stroke-width="0.5"/>
  <rect x="280.0" y="40.0" width="20.0" height="20.0" fill="#D0D0D0" stroke="#333" stroke-width="0.5"/>
  <rect x="0.0" y="60.0" width="60.0" height="60.0" fill="#E0E0E0" stroke="#333" stroke-width="1"/>
  <rect x="60.0" y="60.0" width="60.0" height="60.0" fill="#F8F8F8" stroke="#333" stroke-width="1"/>
  <rect x="120.0" y="60.0" width="60.0" height="60.0" fill="#E0E0E0" stroke="#333" stroke-width="1"/>
  <rect x="180.0" y="60.0" width="60.0" height="60.0" fill="#F8F8F8" stroke="#333" stroke-width="1"/>
  <rect x="240.0" y="60.0" width="60.0" height="60.0" fill="#E0E0E0" stroke="#333" stroke-width="1"/>
  <rect x="0.0" y="120.0" width="20.0" height="20.0" fill="#D0D0D0" stroke="#333" stroke-width="0.5"/>
  <rect x="20.0" y="120.0" width="20.0" height="20.0" fill="#B0B0B0" stroke="#333" stroke-width="0.5"/>
  <rect x="40.0" y="120.0" width="20.0" height="20.0" fill="#D0D0D0" stroke="#333" stroke-width="0.5"/>
  <rect x="0.0" y="140.0" width="20.0" height="20.0" fill="#B0B0B0" stroke="#333" stroke-width="0.5"/>
  <rect x="20.0" y="140.0" width="20.0" height="20.0" fill="#D0D0D0" stroke="#333" stroke-width="0.5"/>
  <rect x="40.0" y="140.0" width="20.0" height="20.0" fill="#B0B0B0" stroke="#333" stroke-width="0.5"/>
  <rect x="0.0" y="160.0" width="20.0" height="20.0" fill="#D0D0D0" stroke="#333" stroke-width="0.5"/>
  <rect x="20.0" y="160.0" width="20.0" height="20.0" fill="#B0B0B0" stroke="#333" stroke-width="0.5"/>
  <rect x="40.0" y="160.0" width="20.0" height="20.0" fill="#D0D0D0" stroke="#333" stroke-width="0.5"/>
  <rect x="60.0" y="120.0" width="60.0" height="60.0" fill="#E0E0E0" stroke="#333" stroke-width="1"/>
  <rect x="120.0" y="120.0" width="20.0" height="20.0" fill="#D0D0D0" stroke="#333" stroke-width="0.5"/>
  <rect x="140.0" y="120.0" width="20.0" height="20.0" fill="#B0B0B0" stroke="#333" stroke-width="0.5"/>
  <rect x="160.0" y="120.0" width="20.0" height="20.0" fill="#D0D0D0" stroke="#333" stroke-width="0.5"/>
  <rect x="120.0" y="140.0" width="20.0" height="20.0" fill="#B0B0B0" stroke="#333" stroke-width="0.5"/>
  <rect x="140.0" y="140.0" width="20.0" height="20.0" fill="#D0D0D0" stroke="#333" stroke-width="0.5"/>
  <rect x="160.0" y="140.0" width="20.0" height="20.0" fill="#B0B0B0" stroke="#333" stroke-width="0.5"/>
  <rect x="120.0" y="160.0" width="20.0" height="20.0" fill="#D0D0D0" stroke="#333" stroke-width="0.5"/>
  <rect x="140.0" y="160.0" width="20.0" height="20.0" fill="#B0B0B0" stroke="#333" stroke-width="0.5"/>
  <rect x="160.0" y="160.0" width="20.0" height="20.0" fill="#D0D0D0" stroke="#333" stroke-width="0.5"/>
  <rect x="180.0" y="120.0" width="60.0" height="60.0" fill="#E0E0E0" stroke="#333" stroke-width="1"/>
  <rect x="240.0" y="120.0" width="20.0" height="20.0" fill="#D0D0D0" stroke="#333" stroke-width="0.5"/>
  <rect x="260.0" y="120.0" width="20.0" height="20.0" fill="#B0B0B0" stroke="#333" stroke-width="0.5"/>
  <rect x="280.0" y="120.0" width="20.0" height="20.0" fill="#D0D0D0" stroke="#333" stroke-width="0.5"/>
  <rect x="240.0" y="140.0" width="20.0" height="20.0" fill="#B0B0B0" stroke="#333" stroke-width="0.5"/>
  <rect x="260.0" y="140.0" width="20.0" height="20.0" fill="#D0D0D0" stroke="#333" stroke-width="0.5"/>
  <rect x="280.0" y="140.0" width="20.0" height="20.0" fill="#B0B0B0" stroke="#333" stroke-width="0.5"/>
  <rect x="240.0" y="160.0" width="20.0" height="20.0" fill="#D0D0D0" stroke="#333" stroke-width="0.5"/>
  <rect x="260.0" y="160.0" width="20.0" height="20.0" fill="#B0B0B0" stroke="#333" stroke-width="0.5"/>
  <rect x="280.0" y="160.0" width="20.0" height="20.0" fill="#D0D0D0" stroke="#333" stroke-width="0.5"/>
  <rect x="0.0" y="180.0" width="60.0" height="60.0" fill="#E0E0E0" stroke="#333" stroke-width="1"/>
  <rect x="60.0" y="180.0" width="60.0" height="60.0" fill="#F8F8F8" stroke="#333" stroke-width="1"/>
  <rect x="120.0" y="180.0" width="60.0" height="60.0" fill="#E0E0E0" stroke="#333" stroke-width="1"/>
  <rect x="180.0" y="180.0" width="60.0" height="60.0" fill="#F8F8F8" stroke="#333" stroke-width="1"/>
  <rect x="240.0" y="180.0" width="60.0" height="60.0" fill="#E0E0E0" stroke="#333" stroke-width="1"/>
  <rect x="0.0" y="240.0" width="20.0" height="20.0" fill="#D0D0D0" stroke="#333" stroke-width="0.5"/>
  <rect x="20.0" y="240.0" width="20.0" height="20.0" fill="#B0B0B0" stroke="#333" stroke-width="0.5"/>
  <rect x="40.0" y="240.0" width="20.0" height="20.0" fill="#D0D0D0" stroke="#333" stroke-width="0.5"/>
  <rect x="0.0" y="260.0" width="20.0" height="20.0" fill="#B0B0B0" stroke="#333" stroke-width="0.5"/>
  <rect x="20.0" y="260.0" width="20.0" height="20.0" fill="#D0D0D0" stroke="#333" stroke-width="0.5"/>
  <rect x="40.0" y="260.0" width="20.0" height="20.0" fill="#B0B0B0" stroke="#333" stroke-width="0.5"/>
  <rect x="0.0" y="280.0" width="20.0" height="20.0" fill="#D0D0D0" stroke="#333" stroke-width="0.5"/>
  <rect x="20.0" y="280.0" width="20.0" height="20.0" fill="#B0B0B0" stroke="#333" stroke-width="0.5"/>
  <rect x="40.0" y="280.0" width="20.0" height="20.0" fill="#D0D0D0" stroke="#333" stroke-width="0.5"/>
  <rect x="60.0" y="240.0" width="60.0" height="60.0" fill="#E0E0E0" stroke="#333" stroke-width="1"/>
  <rect x="120.0" y="240.0" width="20.0" height="20.0" fill="#D0D0D0" stroke="#333" stroke-width="0.5"/>
  <rect x="140.0" y="240.0" width="20.0" height="20.0" fill="#B0B0B0" stroke="#333" stroke-width="0.5"/>
  <rect x="160.0" y="240.0" width="20.0" height="20.0" fill="#D0D0D0" stroke="#333" stroke-width="0.5"/>
  <rect x="120.0" y="260.0" width="20.0" height="20.0" fill="#B0B0B0" stroke="#333" stroke-width="0.5"/>
  <rect x="140.0" y="260.0" width="20.0" height="20.0" fill="#D0D0D0" stroke="#333" stroke-width="0.5"/>
  <rect x="160.0" y="260.0" width="20.0" height="20.0" fill="#B0B0B0" stroke="#333" stroke-width="0.5"/>
  <rect x="120.0" y="280.0" width="20.0" height="20.0" fill="#D0D0D0" stroke="#333" stroke-width="0.5"/>
  <rect x="140.0" y="280.0" width="20.0" height="20.0" fill="#B0B0B0" stroke="#333" stroke-width="0.5"/>
  <rect x="160.0" y="280.0" width="20.0" height="20.0" fill="#D0D0D0" stroke="#333" stroke-width="0.5"/>
  <rect x="180.0" y="240.0" width="60.0" height="60.0" fill="#E0E0E0" stroke="#333" stroke-width="1"/>
  <rect x="240.0" y="240.0" width="20.0" height="20.0" fill="#D0D0D0" stroke="#333" stroke-width="0.5"/>
  <rect x="260.0" y="240.0" width="20.0" height="20.0" fill="#B0B0B0" stroke="#333" stroke-width="0.5"/>
  <rect x="280.0" y="240.0" width="20.0" height="20.0" fill="#D0D0D0" stroke="#333" stroke-width="0.5"/>
  <rect x="240.0" y="260.0" width="20.0" height="20.0" fill="#B0B0B0" stroke="#333" stroke-width="0.5"/>
  <rect x="260.0" y="260.0" width="20.0" height="20.0" fill="#D0D0D0" stroke="#333" stroke-width="0.5"/>
  <rect x="280.0" y="260.0" width="20.0" height="20.0" fill="#B0B0B0" stroke="#333" stroke-width="0.5"/>
  <rect x="240.0" y="280.0" width="20.0" height="20.0" fill="#D0D0D0" stroke="#333" stroke-width="0.5"/>
  <rect x="260.0" y="280.0" width="20.0" height="20.0" fill="#B0B0B0" stroke="#333" stroke-width="0.5"/>
  <rect x="280.0" y="280.0" width="20.0" height="20.0" fill="#D0D0D0" stroke="#333" stroke-width="0.5"/>
</svg>