<?xml version="1.0" encoding="UTF-8"?>
<svg xmlns="http://www.w3.org/2000/svg" viewBox="0 0 300 300" width="300" height="300">
  <!-- Corn and Beans: Traditional 3x3 grid (100px = 4" finished each).
       Based on Farm & Folk pattern. All 8 outer cells are HST units,
       center is solid dark. HSTs made from 3" squares (finish at 2.5", trimmed to 4" cells).
       Cut list: 12 white 3" squares, 6 indigo 3" squares, 6 olive 3" squares = 24 HSTs total.
       Plus 10 white 2.5" squares, 2 olive 2.5" squares for remaining positions.
       Corner HSTs have dark pointing center. Side HSTs alternate dark/light orientation. -->
  <!-- Top-left corner: HST dark pointing SE (toward center) -->
  <polygon points="0,0 100,0 0,100" fill="#F8F8F8" stroke="#333" stroke-width="1" data-shade="background" data-role="patch"/>
  <polygon points="100,0 100,100 0,100" fill="#505050" stroke="#333" stroke-width="1" data-shade="dark" data-role="patch"/>
  <!-- Top-center: HST with dark upper half -->
  <polygon points="100,0 200,0 100,100" fill="#D0D0D0" stroke="#333" stroke-width="1" data-shade="medium" data-role="patch"/>
  <polygon points="200,0 200,100 100,100" fill="#F8F8F8" stroke="#333" stroke-width="1" data-shade="background" data-role="patch"/>
  <!-- Top-right corner: HST dark pointing SW (toward center) -->
  <polygon points="200,0 300,0 300,100" fill="#F8F8F8" stroke="#333" stroke-width="1" data-shade="background" data-role="patch"/>
  <polygon points="200,0 300,100 200,100" fill="#505050" stroke="#333" stroke-width="1" data-shade="dark" data-role="patch"/>
  <!-- Middle-left: HST with dark right half -->
  <polygon points="0,100 100,100 0,200" fill="#F8F8F8" stroke="#333" stroke-width="1" data-shade="background" data-role="patch"/>
  <polygon points="100,100 100,200 0,200" fill="#D0D0D0" stroke="#333" stroke-width="1" data-shade="medium" data-role="patch"/>
  <!-- Center: solid dark square -->
  <rect x="100" y="100" width="100" height="100" fill="#505050" stroke="#333" stroke-width="1" data-shade="dark" data-role="patch"/>
  <!-- Middle-right: HST with dark left half -->
  <polygon points="200,100 300,100 300,200" fill="#D0D0D0" stroke="#333" stroke-width="1" data-shade="medium" data-role="patch"/>
  <polygon points="200,100 200,200 300,200" fill="#F8F8F8" stroke="#333" stroke-width="1" data-shade="background" data-role="patch"/>
  <!-- Bottom-left corner: HST dark pointing NE (toward center) -->
  <polygon points="0,200 100,200 100,300" fill="#505050" stroke="#333" stroke-width="1" data-shade="dark" data-role="patch"/>
  <polygon points="0,200 100,300 0,300" fill="#F8F8F8" stroke="#333" stroke-width="1" data-shade="background" data-role="patch"/>
  <!-- Bottom-center: HST with dark lower half -->
  <polygon points="100,200 200,200 200,300" fill="#F8F8F8" stroke="#333" stroke-width="1" data-shade="background" data-role="patch"/>
  <polygon points="100,200 100,300 200,300" fill="#D0D0D0" stroke="#333" stroke-width="1" data-shade="medium" data-role="patch"/>
  <!-- Bottom-right corner: HST dark pointing NW (toward center) -->
  <polygon points="200,200 300,200 200,300" fill="#505050" stroke="#333" stroke-width="1" data-shade="dark" data-role="patch"/>
  <polygon points="300,200 300,300 200,300" fill="#F8F8F8" stroke="#333" stroke-width="1" data-shade="background" data-role="patch"/>
</svg>
