<?xml version="1.0" encoding="UTF-8"?>
<svg xmlns="http://www.w3.org/2000/svg" viewBox="0 0 300 300" width="300" height="300">
  <!-- Corner squares -->
  <rect x="0" y="0" width="43.93" height="43.93" fill="#F8F8F8" stroke="#333" stroke-width="1"/>
  <rect x="256.07" y="0" width="43.93" height="43.93" fill="#F8F8F8" stroke="#333" stroke-width="1"/>
  <rect x="256.07" y="256.07" width="43.93" height="43.93" fill="#F8F8F8" stroke="#333" stroke-width="1"/>
  <rect x="0" y="256.07" width="43.93" height="43.93" fill="#F8F8F8" stroke="#333" stroke-width="1"/>
  <!-- Setting pieces (8 background quadrilaterals) -->
  <polygon points="43.93,0 150,0 118.93,75 43.93,43.93" fill="#F8F8F8" stroke="#333" stroke-width="1"/>
  <polygon points="150,0 256.07,0 256.07,43.93 181.07,75" fill="#F8F8F8" stroke="#333" stroke-width="1"/>
  <polygon points="256.07,43.93 300,43.93 300,150 225,118.93" fill="#F8F8F8" stroke="#333" stroke-width="1"/>
  <polygon points="300,150 300,256.07 256.07,256.07 225,181.07" fill="#F8F8F8" stroke="#333" stroke-width="1"/>
  <polygon points="256.07,256.07 256.07,300 150,300 181.07,225" fill="#F8F8F8" stroke="#333" stroke-width="1"/>
  <polygon points="150,300 43.93,300 43.93,256.07 118.93,225" fill="#F8F8F8" stroke="#333" stroke-width="1"/>
  <polygon points="43.93,256.07 0,256.07 0,150 75,181.07" fill="#F8F8F8" stroke="#333" stroke-width="1"/>
  <polygon points="0,150 0,43.93 43.93,43.93 75,118.93" fill="#F8F8F8" stroke="#333" stroke-width="1"/>
  <!-- 8 Diamond pieces (45-degree rhombuses) -->
  <polygon points="150,150 181.07,75 150,0 118.93,75" fill="#D0D0D0" stroke="#333" stroke-width="1"/>
  <polygon points="150,150 225,118.93 256.07,43.93 181.07,75" fill="#B0B0B0" stroke="#333" stroke-width="1"/>
  <polygon points="150,150 225,181.07 300,150 225,118.93" fill="#D0D0D0" stroke="#333" stroke-width="1"/>
  <polygon points="150,150 181.07,225 256.07,256.07 225,181.07" fill="#B0B0B0" stroke="#333" stroke-width="1"/>
  <polygon points="150,150 118.93,225 150,300 181.07,225" fill="#D0D0D0" stroke="#333" stroke-width="1"/>
  <polygon points="150,150 75,181.07 43.93,256.07 118.93,225" fill="#B0B0B0" stroke="#333" stroke-width="1"/>
  <polygon points="150,150 75,118.93 0,150 75,181.07" fill="#D0D0D0" stroke="#333" stroke-width="1"/>
  <polygon points="150,150 118.93,75 43.93,43.93 75,118.93" fill="#B0B0B0" stroke="#333" stroke-width="1"/>
</svg>
