<?xml version="1.0" encoding="UTF-8"?>
<svg xmlns="http://www.w3.org/2000/svg" viewBox="0 0 300 300" width="300" height="300">
  <!-- Corner squares (background) -->
  <rect x="0" y="0" width="75" height="75" fill="#F8F8F8" stroke="#333" stroke-width="1" data-shade="background" data-role="patch"/>
  <rect x="225" y="0" width="75" height="75" fill="#F8F8F8" stroke="#333" stroke-width="1" data-shade="background" data-role="patch"/>
  <rect x="0" y="225" width="75" height="75" fill="#F8F8F8" stroke="#333" stroke-width="1" data-shade="background" data-role="patch"/>
  <rect x="225" y="225" width="75" height="75" fill="#F8F8F8" stroke="#333" stroke-width="1" data-shade="background" data-role="patch"/>
  <!-- Top flying goose: dark triangle points up -->
  <polygon points="75,75 225,75 150,0" fill="#505050" stroke="#333" stroke-width="1" data-shade="dark" data-role="patch"/>
  <polygon points="75,0 150,0 75,75" fill="#F8F8F8" stroke="#333" stroke-width="1" data-shade="background" data-role="patch"/>
  <polygon points="150,0 225,0 225,75" fill="#F8F8F8" stroke="#333" stroke-width="1" data-shade="background" data-role="patch"/>
  <!-- Right flying goose: dark triangle points right -->
  <polygon points="225,75 225,225 300,150" fill="#505050" stroke="#333" stroke-width="1" data-shade="dark" data-role="patch"/>
  <polygon points="225,75 300,75 300,150" fill="#F8F8F8" stroke="#333" stroke-width="1" data-shade="background" data-role="patch"/>
  <polygon points="300,150 300,225 225,225" fill="#F8F8F8" stroke="#333" stroke-width="1" data-shade="background" data-role="patch"/>
  <!-- Bottom flying goose: dark triangle points down -->
  <polygon points="75,225 225,225 150,300" fill="#505050" stroke="#333" stroke-width="1" data-shade="dark" data-role="patch"/>
  <polygon points="75,225 75,300 150,300" fill="#F8F8F8" stroke="#333" stroke-width="1" data-shade="background" data-role="patch"/>
  <polygon points="150,300 225,300 225,225" fill="#F8F8F8" stroke="#333" stroke-width="1" data-shade="background" data-role="patch"/>
  <!-- Left flying goose: dark triangle points left -->
  <polygon points="75,75 75,225 0,150" fill="#505050" stroke="#333" stroke-width="1" data-shade="dark" data-role="patch"/>
  <polygon points="0,75 75,75 0,150" fill="#F8F8F8" stroke="#333" stroke-width="1" data-shade="background" data-role="patch"/>
  <polygon points="0,150 75,225 0,225" fill="#F8F8F8" stroke="#333" stroke-width="1" data-shade="background" data-role="patch"/>
  <!-- Setting triangles (light) in center area corners -->
  <polygon points="75,75 150,75 75,150" fill="#E0E0E0" stroke="#333" stroke-width="1" data-shade="light" data-role="patch"/>
  <polygon points="150,75 225,75 225,150" fill="#E0E0E0" stroke="#333" stroke-width="1" data-shade="light" data-role="patch"/>
  <polygon points="225,150 225,225 150,225" fill="#E0E0E0" stroke="#333" stroke-width="1" data-shade="light" data-role="patch"/>
  <polygon points="75,150 150,225 75,225" fill="#E0E0E0" stroke="#333" stroke-width="1" data-shade="light" data-role="patch"/>
  <!-- Nine-patch on point: BG,DK,BG / DK,MD,DK / BG,DK,BG -->
  <!-- Row 0: top -->
  <polygon points="150,75 175,100 150,125 125,100" fill="#F8F8F8" stroke="#333" stroke-width="1" data-shade="background" data-role="patch"/>
  <polygon points="175,100 200,125 175,150 150,125" fill="#505050" stroke="#333" stroke-width="1" data-shade="dark" data-role="patch"/>
  <polygon points="200,125 225,150 200,175 175,150" fill="#F8F8F8" stroke="#333" stroke-width="1" data-shade="background" data-role="patch"/>
  <!-- Row 1: middle -->
  <polygon points="125,100 150,125 125,150 100,125" fill="#505050" stroke="#333" stroke-width="1" data-shade="dark" data-role="patch"/>
  <polygon points="150,125 175,150 150,175 125,150" fill="#B0B0B0" stroke="#333" stroke-width="1" data-shade="medium" data-role="patch"/>
  <polygon points="175,150 200,175 175,200 150,175" fill="#505050" stroke="#333" stroke-width="1" data-shade="dark" data-role="patch"/>
  <!-- Row 2: bottom -->
  <polygon points="100,125 125,150 100,175 75,150" fill="#F8F8F8" stroke="#333" stroke-width="1" data-shade="background" data-role="patch"/>
  <polygon points="125,150 150,175 125,200 100,175" fill="#505050" stroke="#333" stroke-width="1" data-shade="dark" data-role="patch"/>
  <polygon points="150,175 175,200 150,225 125,200" fill="#F8F8F8" stroke="#333" stroke-width="1" data-shade="background" data-role="patch"/>
</svg>
