<?xml version="1.0" encoding="UTF-8"?>
<svg xmlns="http://www.w3.org/2000/svg" viewBox="0 0 300 300" width="300" height="300">
  <!-- Anvil: 3x3 grid resembling an anvil shape -->
  <!-- Top row -->
  <!-- Top-left: HST with dark pointing right/down -->
  <polygon points="0,0 100,0 0,100" fill="#F8F8F8" stroke="#333" stroke-width="1"/>
  <polygon points="100,0 100,100 0,100" fill="#505050" stroke="#333" stroke-width="1"/>
  <!-- Top-center: solid dark -->
  <rect x="100" y="0" width="100" height="100" fill="#505050" stroke="#333" stroke-width="1"/>
  <!-- Top-right: HST with dark pointing left/down -->
  <polygon points="200,0 300,0 300,100" fill="#F8F8F8" stroke="#333" stroke-width="1"/>
  <polygon points="200,0 300,100 200,100" fill="#505050" stroke="#333" stroke-width="1"/>
  <!-- Middle row: all solid dark (the anvil body) -->
  <rect x="0" y="100" width="100" height="100" fill="#505050" stroke="#333" stroke-width="1"/>
  <rect x="100" y="100" width="100" height="100" fill="#505050" stroke="#333" stroke-width="1"/>
  <rect x="200" y="100" width="100" height="100" fill="#505050" stroke="#333" stroke-width="1"/>
  <!-- Bottom row -->
  <!-- Bottom-left: HST reversed (dark pointing right/up) -->
  <polygon points="0,200 100,200 100,300" fill="#505050" stroke="#333" stroke-width="1"/>
  <polygon points="0,200 100,300 0,300" fill="#F8F8F8" stroke="#333" stroke-width="1"/>
  <!-- Bottom-center: solid dark -->
  <rect x="100" y="200" width="100" height="100" fill="#505050" stroke="#333" stroke-width="1"/>
  <!-- Bottom-right: HST reversed (dark pointing left/up) -->
  <polygon points="200,200 300,200 200,300" fill="#505050" stroke="#333" stroke-width="1"/>
  <polygon points="300,200 300,300 200,300" fill="#F8F8F8" stroke="#333" stroke-width="1"/>
</svg>
