<?xml version="1.0" encoding="UTF-8"?>
<svg xmlns="http://www.w3.org/2000/svg" viewBox="0 0 300 300" width="300" height="300">
  <!-- Nine-Patch Star (Rosie's): 4×4 grid (75px). Small nine-patch center,
       flying geese star points (medium), background corners. -->
  <!-- Corner squares (background) -->
  <rect x="0" y="0" width="75" height="75" fill="#F8F8F8" stroke="#333" stroke-width="1" data-shade="background" data-role="patch"/>
  <rect x="225" y="0" width="75" height="75" fill="#F8F8F8" stroke="#333" stroke-width="1" data-shade="background" data-role="patch"/>
  <rect x="0" y="225" width="75" height="75" fill="#F8F8F8" stroke="#333" stroke-width="1" data-shade="background" data-role="patch"/>
  <rect x="225" y="225" width="75" height="75" fill="#F8F8F8" stroke="#333" stroke-width="1" data-shade="background" data-role="patch"/>
  <!-- Flying geese star points (medium) -->
  <!-- Top -->
  <polygon points="75,75 225,75 150,0" fill="#B0B0B0" stroke="#333" stroke-width="1" data-shade="medium" data-role="patch"/>
  <polygon points="75,0 150,0 75,75" fill="#F8F8F8" stroke="#333" stroke-width="1" data-shade="background" data-role="patch"/>
  <polygon points="150,0 225,0 225,75" fill="#F8F8F8" stroke="#333" stroke-width="1" data-shade="background" data-role="patch"/>
  <!-- Right -->
  <polygon points="225,75 225,225 300,150" fill="#B0B0B0" stroke="#333" stroke-width="1" data-shade="medium" data-role="patch"/>
  <polygon points="225,75 300,75 300,150" fill="#F8F8F8" stroke="#333" stroke-width="1" data-shade="background" data-role="patch"/>
  <polygon points="300,150 300,225 225,225" fill="#F8F8F8" stroke="#333" stroke-width="1" data-shade="background" data-role="patch"/>
  <!-- Bottom -->
  <polygon points="75,225 225,225 150,300" fill="#B0B0B0" stroke="#333" stroke-width="1" data-shade="medium" data-role="patch"/>
  <polygon points="75,225 75,300 150,300" fill="#F8F8F8" stroke="#333" stroke-width="1" data-shade="background" data-role="patch"/>
  <polygon points="150,300 225,300 225,225" fill="#F8F8F8" stroke="#333" stroke-width="1" data-shade="background" data-role="patch"/>
  <!-- Left -->
  <polygon points="75,75 75,225 0,150" fill="#B0B0B0" stroke="#333" stroke-width="1" data-shade="medium" data-role="patch"/>
  <polygon points="0,75 75,75 0,150" fill="#F8F8F8" stroke="#333" stroke-width="1" data-shade="background" data-role="patch"/>
  <polygon points="0,150 75,225 0,225" fill="#F8F8F8" stroke="#333" stroke-width="1" data-shade="background" data-role="patch"/>
  <!-- Nine-patch center (150×150, each cell 50px) -->
  <!-- Row 0: bg, dark, bg -->
  <rect x="75" y="75" width="50" height="50" fill="#F8F8F8" stroke="#333" stroke-width="1" data-shade="background" data-role="patch"/>
  <rect x="125" y="75" width="50" height="50" fill="#505050" stroke="#333" stroke-width="1" data-shade="dark" data-role="patch"/>
  <rect x="175" y="75" width="50" height="50" fill="#F8F8F8" stroke="#333" stroke-width="1" data-shade="background" data-role="patch"/>
  <!-- Row 1: dark, bg, dark -->
  <rect x="75" y="125" width="50" height="50" fill="#505050" stroke="#333" stroke-width="1" data-shade="dark" data-role="patch"/>
  <rect x="125" y="125" width="50" height="50" fill="#F8F8F8" stroke="#333" stroke-width="1" data-shade="background" data-role="patch"/>
  <rect x="175" y="125" width="50" height="50" fill="#505050" stroke="#333" stroke-width="1" data-shade="dark" data-role="patch"/>
  <!-- Row 2: bg, dark, bg -->
  <rect x="75" y="175" width="50" height="50" fill="#F8F8F8" stroke="#333" stroke-width="1" data-shade="background" data-role="patch"/>
  <rect x="125" y="175" width="50" height="50" fill="#505050" stroke="#333" stroke-width="1" data-shade="dark" data-role="patch"/>
  <rect x="175" y="175" width="50" height="50" fill="#F8F8F8" stroke="#333" stroke-width="1" data-shade="background" data-role="patch"/>
</svg>
