<?xml version="1.0" encoding="UTF-8"?>
<svg xmlns="http://www.w3.org/2000/svg" viewBox="0 0 300 300" width="300" height="300">
  <!-- Winged Square: 3x3 grid (100px cells), center square with wing triangles on all 4 sides -->
  <!-- Background -->
  <rect x="0" y="0" width="300" height="300" fill="#F8F8F8" stroke="#333" stroke-width="1"/>
  <!-- Corner squares (F8F8F8) -->
  <rect x="0" y="0" width="100" height="100" fill="#F8F8F8" stroke="#333" stroke-width="1"/>
  <rect x="200" y="0" width="100" height="100" fill="#F8F8F8" stroke="#333" stroke-width="1"/>
  <rect x="0" y="200" width="100" height="100" fill="#F8F8F8" stroke="#333" stroke-width="1"/>
  <rect x="200" y="200" width="100" height="100" fill="#F8F8F8" stroke="#333" stroke-width="1"/>
  <!-- Wing triangles in side cells (D0D0D0) — pointing outward from center -->
  <!-- Top wing: triangle pointing up -->
  <rect x="100" y="0" width="100" height="100" fill="#F8F8F8" stroke="#333" stroke-width="1"/>
  <polygon points="100,100 150,0 200,100" fill="#D0D0D0" stroke="#333" stroke-width="1"/>
  <!-- Right wing: triangle pointing right -->
  <rect x="200" y="100" width="100" height="100" fill="#F8F8F8" stroke="#333" stroke-width="1"/>
  <polygon points="200,100 300,150 200,200" fill="#D0D0D0" stroke="#333" stroke-width="1"/>
  <!-- Bottom wing: triangle pointing down -->
  <rect x="100" y="200" width="100" height="100" fill="#F8F8F8" stroke="#333" stroke-width="1"/>
  <polygon points="100,200 150,300 200,200" fill="#D0D0D0" stroke="#333" stroke-width="1"/>
  <!-- Left wing: triangle pointing left -->
  <rect x="0" y="100" width="100" height="100" fill="#F8F8F8" stroke="#333" stroke-width="1"/>
  <polygon points="100,100 0,150 100,200" fill="#D0D0D0" stroke="#333" stroke-width="1"/>
  <!-- Small corner accent triangles -->
  <polygon points="0,0 100,0 100,100" fill="#E0E0E0" stroke="#333" stroke-width="1"/>
  <polygon points="200,0 300,0 200,100" fill="#E0E0E0" stroke="#333" stroke-width="1"/>
  <polygon points="200,300 300,300 200,200" fill="#E0E0E0" stroke="#333" stroke-width="1"/>
  <polygon points="0,300 100,300 100,200" fill="#E0E0E0" stroke="#333" stroke-width="1"/>
  <!-- Center square (505050) -->
  <rect x="100" y="100" width="100" height="100" fill="#505050" stroke="#333" stroke-width="1"/>
</svg>