<?xml version="1.0" encoding="UTF-8"?>
<svg xmlns="http://www.w3.org/2000/svg" viewBox="0 0 360 460" width="360" height="460">
  <rect x="0" y="0" width="360" height="460" fill="#F8F8F8" stroke="#333" stroke-width="2"/>
  <rect x="30.0" y="30.0" width="16.666666666666668" height="16.666666666666668" fill="#D0D0D0" stroke="#333" stroke-width="0.5"/>
  <rect x="46.66666666666667" y="30.0" width="16.666666666666668" height="16.666666666666668" fill="#B0B0B0" stroke="#333" stroke-width="0.5"/>
  <rect x="63.333333333333336" y="30.0" width="16.666666666666668" height="16.666666666666668" fill="#D0D0D0" stroke="#333" stroke-width="0.5"/>
  <rect x="30.0" y="46.66666666666667" width="16.666666666666668" height="16.666666666666668" fill="#B0B0B0" stroke="#333" stroke-width="0.5"/>
  <rect x="46.66666666666667" y="46.66666666666667" width="16.666666666666668" height="16.666666666666668" fill="#D0D0D0" stroke="#333" stroke-width="0.5"/>
  <rect x="63.333333333333336" y="46.66666666666667" width="16.666666666666668" height="16.666666666666668" fill="#B0B0B0" stroke="#333" stroke-width="0.5"/>
  <rect x="30.0" y="63.333333333333336" width="16.666666666666668" height="16.666666666666668" fill="#D0D0D0" stroke="#333" stroke-width="0.5"/>
  <rect x="46.66666666666667" y="63.333333333333336" width="16.666666666666668" height="16.666666666666668" fill="#B0B0B0" stroke="#333" stroke-width="0.5"/>
  <rect x="63.333333333333336" y="63.333333333333336" width="16.666666666666668" height="16.666666666666668" fill="#D0D0D0" stroke="#333" stroke-width="0.5"/>
  <polygon points="80,30 105.0,30 80,55.0" fill="#D0D0D0" stroke="#333" stroke-width="0.5"/>
  <polygon points="105.0,30 130,30 130,55.0" fill="#B0B0B0" stroke="#333" stroke-width="0.5"/>
  <polygon points="130,55.0 130,80 105.0,80" fill="#D0D0D0" stroke="#333" stroke-width="0.5"/>
  <polygon points="80,55.0 105.0,80 80,80" fill="#B0B0B0" stroke="#333" stroke-width="0.5"/>
  <polygon points="130,30 180,30 130,80" fill="#D0D0D0" stroke="#333" stroke-width="0.5"/>
  <polygon points="180,30 180,80 130,80" fill="#B0B0B0" stroke="#333" stroke-width="0.5"/>
  <rect x="180.0" y="30.0" width="16.666666666666668" height="16.666666666666668" fill="#D0D0D0" stroke="#333" stroke-width="0.5"/>
  <rect x="196.66666666666666" y="30.0" width="16.666666666666668" height="16.666666666666668" fill="#B0B0B0" stroke="#333" stroke-width="0.5"/>
  <rect x="213.33333333333334" y="30.0" width="16.666666666666668" height="16.666666666666668" fill="#D0D0D0" stroke="#333" stroke-width="0.5"/>
  <rect x="180.0" y="46.66666666666667" width="16.666666666666668" height="16.666666666666668" fill="#B0B0B0" stroke="#333" stroke-width="0.5"/>
  <rect x="196.66666666666666" y="46.66666666666667" width="16.666666666666668" height="16.666666666666668" fill="#D0D0D0" stroke="#333" stroke-width="0.5"/>
  <rect x="213.33333333333334" y="46.66666666666667" width="16.666666666666668" height="16.666666666666668" fill="#B0B0B0" stroke="#333" stroke-width="0.5"/>
  <rect x="180.0" y="63.333333333333336" width="16.666666666666668" height="16.666666666666668" fill="#D0D0D0" stroke="#333" stroke-width="0.5"/>
  <rect x="196.66666666666666" y="63.333333333333336" width="16.666666666666668" height="16.666666666666668" fill="#B0B0B0" stroke="#333" stroke-width="0.5"/>
  <rect x="213.33333333333334" y="63.333333333333336" width="16.666666666666668" height="16.666666666666668" fill="#D0D0D0" stroke="#333" stroke-width="0.5"/>
  <polygon points="230,30 255.0,30 230,55.0" fill="#D0D0D0" stroke="#333" stroke-width="0.5"/>
  <polygon points="255.0,30 280,30 280,55.0" fill="#B0B0B0" stroke="#333" stroke-width="0.5"/>
  <polygon points="280,55.0 280,80 255.0,80" fill="#D0D0D0" stroke="#333" stroke-width="0.5"/>
  <polygon points="230,55.0 255.0,80 230,80" fill="#B0B0B0" stroke="#333" stroke-width="0.5"/>
  <polygon points="280,30 330,30 280,80" fill="#D0D0D0" stroke="#333" stroke-width="0.5"/>
  <polygon points="330,30 330,80 280,80" fill="#B0B0B0" stroke="#333" stroke-width="0.5"/>
  <polygon points="30,80 55.0,80 30,105.0" fill="#D0D0D0" stroke="#333" stroke-width="0.5"/>
  <polygon points="55.0,80 80,80 80,105.0" fill="#B0B0B0" stroke="#333" stroke-width="0.5"/>
  <polygon points="80,105.0 80,130 55.0,130" fill="#D0D0D0" stroke="#333" stroke-width="0.5"/>
  <polygon points="30,105.0 55.0,130 30,130" fill="#B0B0B0" stroke="#333" stroke-width="0.5"/>
  <polygon points="80,80 130,80 80,130" fill="#D0D0D0" stroke="#333" stroke-width="0.5"/>
  <polygon points="130,80 130,130 80,130" fill="#B0B0B0" stroke="#333" stroke-width="0.5"/>
  <rect x="130.0" y="80.0" width="16.666666666666668" height="16.666666666666668" fill="#D0D0D0" stroke="#333" stroke-width="0.5"/>
  <rect x="146.66666666666666" y="80.0" width="16.666666666666668" height="16.666666666666668" fill="#B0B0B0" stroke="#333" stroke-width="0.5"/>
  <rect x="163.33333333333334" y="80.0" width="16.666666666666668" height="16.666666666666668" fill="#D0D0D0" stroke="#333" stroke-width="0.5"/>
  <rect x="130.0" y="96.66666666666667" width="16.666666666666668" height="16.666666666666668" fill="#B0B0B0" stroke="#333" stroke-width="0.5"/>
  <rect x="146.66666666666666" y="96.66666666666667" width="16.666666666666668" height="16.666666666666668" fill="#D0D0D0" stroke="#333" stroke-width="0.5"/>
  <rect x="163.33333333333334" y="96.66666666666667" width="16.666666666666668" height="16.666666666666668" fill="#B0B0B0" stroke="#333" stroke-width="0.5"/>
  <rect x="130.0" y="113.33333333333334" width="16.666666666666668" height="16.666666666666668" fill="#D0D0D0" stroke="#333" stroke-width="0.5"/>
  <rect x="146.66666666666666" y="113.33333333333334" width="16.666666666666668" height="16.666666666666668" fill="#B0B0B0" stroke="#333" stroke-width="0.5"/>
  <rect x="163.33333333333334" y="113.33333333333334" width="16.666666666666668" height="16.666666666666668" fill="#D0D0D0" stroke="#333" stroke-width="0.5"/>
  <polygon points="180,80 205.0,80 180,105.0" fill="#D0D0D0" stroke="#333" stroke-width="0.5"/>
  <polygon points="205.0,80 230,80 230,105.0" fill="#B0B0B0" stroke="#333" stroke-width="0.5"/>
  <polygon points="230,105.0 230,130 205.0,130" fill="#D0D0D0" stroke="#333" stroke-width="0.5"/>
  <polygon points="180,105.0 205.0,130 180,130" fill="#B0B0B0" stroke="#333" stroke-width="0.5"/>
  <polygon points="230,80 280,80 230,130" fill="#D0D0D0" stroke="#333" stroke-width="0.5"/>
  <polygon points="280,80 280,130 230,130" fill="#B0B0B0" stroke="#333" stroke-width="0.5"/>
  <rect x="280.0" y="80.0" width="16.666666666666668" height="16.666666666666668" fill="#D0D0D0" stroke="#333" stroke-width="0.5"/>
  <rect x="296.6666666666667" y="80.0" width="16.666666666666668" height="16.666666666666668" fill="#B0B0B0" stroke="#333" stroke-width="0.5"/>
  <rect x="313.3333333333333" y="80.0" width="16.666666666666668" height="16.666666666666668" fill="#D0D0D0" stroke="#333" stroke-width="0.5"/>
  <rect x="280.0" y="96.66666666666667" width="16.666666666666668" height="16.666666666666668" fill="#B0B0B0" stroke="#333" stroke-width="0.5"/>
  <rect x="296.6666666666667" y="96.66666666666667" width="16.666666666666668" height="16.666666666666668" fill="#D0D0D0" stroke="#333" stroke-width="0.5"/>
  <rect x="313.3333333333333" y="96.66666666666667" width="16.666666666666668" height="16.666666666666668" fill="#B0B0B0" stroke="#333" stroke-width="0.5"/>
  <rect x="280.0" y="113.33333333333334" width="16.666666666666668" height="16.666666666666668" fill="#D0D0D0" stroke="#333" stroke-width="0.5"/>
  <rect x="296.6666666666667" y="113.33333333333334" width="16.666666666666668" height="16.666666666666668" fill="#B0B0B0" stroke="#333" stroke-width="0.5"/>
  <rect x="313.3333333333333" y="113.33333333333334" width="16.666666666666668" height="16.666666666666668" fill="#D0D0D0" stroke="#333" stroke-width="0.5"/>
  <polygon points="30,130 80,130 30,180" fill="#D0D0D0" stroke="#333" stroke-width="0.5"/>
  <polygon points="80,130 80,180 30,180" fill="#B0B0B0" stroke="#333" stroke-width="0.5"/>
  <rect x="80.0" y="130.0" width="16.666666666666668" height="16.666666666666668" fill="#D0D0D0" stroke="#333" stroke-width="0.5"/>
  <rect x="96.66666666666667" y="130.0" width="16.666666666666668" height="16.666666666666668" fill="#B0B0B0" stroke="#333" stroke-width="0.5"/>
  <rect x="113.33333333333334" y="130.0" width="16.666666666666668" height="16.666666666666668" fill="#D0D0D0" stroke="#333" stroke-width="0.5"/>
  <rect x="80.0" y="146.66666666666666" width="16.666666666666668" height="16.666666666666668" fill="#B0B0B0" stroke="#333" stroke-width="0.5"/>
  <rect x="96.66666666666667" y="146.66666666666666" width="16.666666666666668" height="16.666666666666668" fill="#D0D0D0" stroke="#333" stroke-width="0.5"/>
  <rect x="113.33333333333334" y="146.66666666666666" width="16.666666666666668" height="16.666666666666668" fill="#B0B0B0" stroke="#333" stroke-width="0.5"/>
  <rect x="80.0" y="163.33333333333334" width="16.666666666666668" height="16.666666666666668" fill="#D0D0D0" stroke="#333" stroke-width="0.5"/>
  <rect x="96.66666666666667" y="163.33333333333334" width="16.666666666666668" height="16.666666666666668" fill="#B0B0B0" stroke="#333" stroke-width="0.5"/>
  <rect x="113.33333333333334" y="163.33333333333334" width="16.666666666666668" height="16.666666666666668" fill="#D0D0D0" stroke="#333" stroke-width="0.5"/>
  <polygon points="130,130 155.0,130 130,155.0" fill="#D0D0D0" stroke="#333" stroke-width="0.5"/>
  <polygon points="155.0,130 180,130 180,155.0" fill="#B0B0B0" stroke="#333" stroke-width="0.5"/>
  <polygon points="180,155.0 180,180 155.0,180" fill="#D0D0D0" stroke="#333" stroke-width="0.5"/>
  <polygon points="130,155.0 155.0,180 130,180" fill="#B0B0B0" stroke="#333" stroke-width="0.5"/>
  <polygon points="180,130 230,130 180,180" fill="#D0D0D0" stroke="#333" stroke-width="0.5"/>
  <polygon points="230,130 230,180 180,180" fill="#B0B0B0" stroke="#333" stroke-width="0.5"/>
  <rect x="230.0" y="130.0" width="16.666666666666668" height="16.666666666666668" fill="#D0D0D0" stroke="#333" stroke-width="0.5"/>
  <rect x="246.66666666666666" y="130.0" width="16.666666666666668" height="16.666666666666668" fill="#B0B0B0" stroke="#333" stroke-width="0.5"/>
  <rect x="263.3333333333333" y="130.0" width="16.666666666666668" height="16.666666666666668" fill="#D0D0D0" stroke="#333" stroke-width="0.5"/>
  <rect x="230.0" y="146.66666666666666" width="16.666666666666668" height="16.666666666666668" fill="#B0B0B0" stroke="#333" stroke-width="0.5"/>
  <rect x="246.66666666666666" y="146.66666666666666" width="16.666666666666668" height="16.666666666666668" fill="#D0D0D0" stroke="#333" stroke-width="0.5"/>
  <rect x="263.3333333333333" y="146.66666666666666" width="16.666666666666668" height="16.666666666666668" fill="#B0B0B0" stroke="#333" stroke-width="0.5"/>
  <rect x="230.0" y="163.33333333333334" width="16.666666666666668" height="16.666666666666668" fill="#D0D0D0" stroke="#333" stroke-width="0.5"/>
  <rect x="246.66666666666666" y="163.33333333333334" width="16.666666666666668" height="16.666666666666668" fill="#B0B0B0" stroke="#333" stroke-width="0.5"/>
  <rect x="263.3333333333333" y="163.33333333333334" width="16.666666666666668" height="16.666666666666668" fill="#D0D0D0" stroke="#333" stroke-width="0.5"/>
  <polygon points="280,130 305.0,130 280,155.0" fill="#D0D0D0" stroke="#333" stroke-width="0.5"/>
  <polygon points="305.0,130 330,130 330,155.0" fill="#B0B0B0" stroke="#333" stroke-width="0.5"/>
  <polygon points="330,155.0 330,180 305.0,180" fill="#D0D0D0" stroke="#333" stroke-width="0.5"/>
  <polygon points="280,155.0 305.0,180 280,180" fill="#B0B0B0" stroke="#333" stroke-width="0.5"/>
  <rect x="30.0" y="180.0" width="16.666666666666668" height="16.666666666666668" fill="#D0D0D0" stroke="#333" stroke-width="0.5"/>
  <rect x="46.66666666666667" y="180.0" width="16.666666666666668" height="16.666666666666668" fill="#B0B0B0" stroke="#333" stroke-width="0.5"/>
  <rect x="63.333333333333336" y="180.0" width="16.666666666666668" height="16.666666666666668" fill="#D0D0D0" stroke="#333" stroke-width="0.5"/>
  <rect x="30.0" y="196.66666666666666" width="16.666666666666668" height="16.666666666666668" fill="#B0B0B0" stroke="#333" stroke-width="0.5"/>
  <rect x="46.66666666666667" y="196.66666666666666" width="16.666666666666668" height="16.666666666666668" fill="#D0D0D0" stroke="#333" stroke-width="0.5"/>
  <rect x="63.333333333333336" y="196.66666666666666" width="16.666666666666668" height="16.666666666666668" fill="#B0B0B0" stroke="#333" stroke-width="0.5"/>
  <rect x="30.0" y="213.33333333333334" width="16.666666666666668" height="16.666666666666668" fill="#D0D0D0" stroke="#333" stroke-width="0.5"/>
  <rect x="46.66666666666667" y="213.33333333333334" width="16.666666666666668" height="16.666666666666668" fill="#B0B0B0" stroke="#333" stroke-width="0.5"/>
  <rect x="63.333333333333336" y="213.33333333333334" width="16.666666666666668" height="16.666666666666668" fill="#D0D0D0" stroke="#333" stroke-width="0.5"/>
  <polygon points="80,180 105.0,180 80,205.0" fill="#D0D0D0" stroke="#333" stroke-width="0.5"/>
  <polygon points="105.0,180 130,180 130,205.0" fill="#B0B0B0" stroke="#333" stroke-width="0.5"/>
  <polygon points="130,205.0 130,230 105.0,230" fill="#D0D0D0" stroke="#333" stroke-width="0.5"/>
  <polygon points="80,205.0 105.0,230 80,230" fill="#B0B0B0" stroke="#333" stroke-width="0.5"/>
  <polygon points="130,180 180,180 130,230" fill="#D0D0D0" stroke="#333" stroke-width="0.5"/>
  <polygon points="180,180 180,230 130,230" fill="#B0B0B0" stroke="#333" stroke-width="0.5"/>
  <rect x="180.0" y="180.0" width="16.666666666666668" height="16.666666666666668" fill="#D0D0D0" stroke="#333" stroke-width="0.5"/>
  <rect x="196.66666666666666" y="180.0" width="16.666666666666668" height="16.666666666666668" fill="#B0B0B0" stroke="#333" stroke-width="0.5"/>
  <rect x="213.33333333333334" y="180.0" width="16.666666666666668" height="16.666666666666668" fill="#D0D0D0" stroke="#333" stroke-width="0.5"/>
  <rect x="180.0" y="196.66666666666666" width="16.666666666666668" height="16.666666666666668" fill="#B0B0B0" stroke="#333" stroke-width="0.5"/>
  <rect x="196.66666666666666" y="196.66666666666666" width="16.666666666666668" height="16.666666666666668" fill="#D0D0D0" stroke="#333" stroke-width="0.5"/>
  <rect x="213.33333333333334" y="196.66666666666666" width="16.666666666666668" height="16.666666666666668" fill="#B0B0B0" stroke="#333" stroke-width="0.5"/>
  <rect x="180.0" y="213.33333333333334" width="16.666666666666668" height="16.666666666666668" fill="#D0D0D0" stroke="#333" stroke-width="0.5"/>
  <rect x="196.66666666666666" y="213.33333333333334" width="16.666666666666668" height="16.666666666666668" fill="#B0B0B0" stroke="#333" stroke-width="0.5"/>
  <rect x="213.33333333333334" y="213.33333333333334" width="16.666666666666668" height="16.666666666666668" fill="#D0D0D0" stroke="#333" stroke-width="0.5"/>
  <polygon points="230,180 255.0,180 230,205.0" fill="#D0D0D0" stroke="#333" stroke-width="0.5"/>
  <polygon points="255.0,180 280,180 280,205.0" fill="#B0B0B0" stroke="#333" stroke-width="0.5"/>
  <polygon points="280,205.0 280,230 255.0,230" fill="#D0D0D0" stroke="#333" stroke-width="0.5"/>
  <polygon points="230,205.0 255.0,230 230,230" fill="#B0B0B0" stroke="#333" stroke-width="0.5"/>
  <polygon points="280,180 330,180 280,230" fill="#D0D0D0" stroke="#333" stroke-width="0.5"/>
  <polygon points="330,180 330,230 280,230" fill="#B0B0B0" stroke="#333" stroke-width="0.5"/>
  <polygon points="30,230 55.0,230 30,255.0" fill="#D0D0D0" stroke="#333" stroke-width="0.5"/>
  <polygon points="55.0,230 80,230 80,255.0" fill="#B0B0B0" stroke="#333" stroke-width="0.5"/>
  <polygon points="80,255.0 80,280 55.0,280" fill="#D0D0D0" stroke="#333" stroke-width="0.5"/>
  <polygon points="30,255.0 55.0,280 30,280" fill="#B0B0B0" stroke="#333" stroke-width="0.5"/>
  <polygon points="80,230 130,230 80,280" fill="#D0D0D0" stroke="#333" stroke-width="0.5"/>
  <polygon points="130,230 130,280 80,280" fill="#B0B0B0" stroke="#333" stroke-width="0.5"/>
  <rect x="130.0" y="230.0" width="16.666666666666668" height="16.666666666666668" fill="#D0D0D0" stroke="#333" stroke-width="0.5"/>
  <rect x="146.66666666666666" y="230.0" width="16.666666666666668" height="16.666666666666668" fill="#B0B0B0" stroke="#333" stroke-width="0.5"/>
  <rect x="163.33333333333334" y="230.0" width="16.666666666666668" height="16.666666666666668" fill="#D0D0D0" stroke="#333" stroke-width="0.5"/>
  <rect x="130.0" y="246.66666666666666" width="16.666666666666668" height="16.666666666666668" fill="#B0B0B0" stroke="#333" stroke-width="0.5"/>
  <rect x="146.66666666666666" y="246.66666666666666" width="16.666666666666668" height="16.666666666666668" fill="#D0D0D0" stroke="#333" stroke-width="0.5"/>
  <rect x="163.33333333333334" y="246.66666666666666" width="16.666666666666668" height="16.666666666666668" fill="#B0B0B0" stroke="#333" stroke-width="0.5"/>
  <rect x="130.0" y="263.3333333333333" width="16.666666666666668" height="16.666666666666668" fill="#D0D0D0" stroke="#333" stroke-width="0.5"/>
  <rect x="146.66666666666666" y="263.3333333333333" width="16.666666666666668" height="16.666666666666668" fill="#B0B0B0" stroke="#333" stroke-width="0.5"/>
  <rect x="163.33333333333334" y="263.3333333333333" width="16.666666666666668" height="16.666666666666668" fill="#D0D0D0" stroke="#333" stroke-width="0.5"/>
  <polygon points="180,230 205.0,230 180,255.0" fill="#D0D0D0" stroke="#333" stroke-width="0.5"/>
  <polygon points="205.0,230 230,230 230,255.0" fill="#B0B0B0" stroke="#333" stroke-width="0.5"/>
  <polygon points="230,255.0 230,280 205.0,280" fill="#D0D0D0" stroke="#333" stroke-width="0.5"/>
  <polygon points="180,255.0 205.0,280 180,280" fill="#B0B0B0" stroke="#333" stroke-width="0.5"/>
  <polygon points="230,230 280,230 230,280" fill="#D0D0D0" stroke="#333" stroke-width="0.5"/>
  <polygon points="280,230 280,280 230,280" fill="#B0B0B0" stroke="#333" stroke-width="0.5"/>
  <rect x="280.0" y="230.0" width="16.666666666666668" height="16.666666666666668" fill="#D0D0D0" stroke="#333" stroke-width="0.5"/>
  <rect x="296.6666666666667" y="230.0" width="16.666666666666668" height="16.666666666666668" fill="#B0B0B0" stroke="#333" stroke-width="0.5"/>
  <rect x="313.3333333333333" y="230.0" width="16.666666666666668" height="16.666666666666668" fill="#D0D0D0" stroke="#333" stroke-width="0.5"/>
  <rect x="280.0" y="246.66666666666666" width="16.666666666666668" height="16.666666666666668" fill="#B0B0B0" stroke="#333" stroke-width="0.5"/>
  <rect x="296.6666666666667" y="246.66666666666666" width="16.666666666666668" height="16.666666666666668" fill="#D0D0D0" stroke="#333" stroke-width="0.5"/>
  <rect x="313.3333333333333" y="246.66666666666666" width="16.666666666666668" height="16.666666666666668" fill="#B0B0B0" stroke="#333" stroke-width="0.5"/>
  <rect x="280.0" y="263.3333333333333" width="16.666666666666668" height="16.666666666666668" fill="#D0D0D0" stroke="#333" stroke-width="0.5"/>
  <rect x="296.6666666666667" y="263.3333333333333" width="16.666666666666668" height="16.666666666666668" fill="#B0B0B0" stroke="#333" stroke-width="0.5"/>
  <rect x="313.3333333333333" y="263.3333333333333" width="16.666666666666668" height="16.666666666666668" fill="#D0D0D0" stroke="#333" stroke-width="0.5"/>
  <polygon points="30,280 80,280 30,330" fill="#D0D0D0" stroke="#333" stroke-width="0.5"/>
  <polygon points="80,280 80,330 30,330" fill="#B0B0B0" stroke="#333" stroke-width="0.5"/>
  <rect x="80.0" y="280.0" width="16.666666666666668" height="16.666666666666668" fill="#D0D0D0" stroke="#333" stroke-width="0.5"/>
  <rect x="96.66666666666667" y="280.0" width="16.666666666666668" height="16.666666666666668" fill="#B0B0B0" stroke="#333" stroke-width="0.5"/>
  <rect x="113.33333333333334" y="280.0" width="16.666666666666668" height="16.666666666666668" fill="#D0D0D0" stroke="#333" stroke-width="0.5"/>
  <rect x="80.0" y="296.6666666666667" width="16.666666666666668" height="16.666666666666668" fill="#B0B0B0" stroke="#333" stroke-width="0.5"/>
  <rect x="96.66666666666667" y="296.6666666666667" width="16.666666666666668" height="16.666666666666668" fill="#D0D0D0" stroke="#333" stroke-width="0.5"/>
  <rect x="113.33333333333334" y="296.6666666666667" width="16.666666666666668" height="16.666666666666668" fill="#B0B0B0" stroke="#333" stroke-width="0.5"/>
  <rect x="80.0" y="313.3333333333333" width="16.666666666666668" height="16.666666666666668" fill="#D0D0D0" stroke="#333" stroke-width="0.5"/>
  <rect x="96.66666666666667" y="313.3333333333333" width="16.666666666666668" height="16.666666666666668" fill="#B0B0B0" stroke="#333" stroke-width="0.5"/>
  <rect x="113.33333333333334" y="313.3333333333333" width="16.666666666666668" height="16.666666666666668" fill="#D0D0D0" stroke="#333" stroke-width="0.5"/>
  <polygon points="130,280 155.0,280 130,305.0" fill="#D0D0D0" stroke="#333" stroke-width="0.5"/>
  <polygon points="155.0,280 180,280 180,305.0" fill="#B0B0B0" stroke="#333" stroke-width="0.5"/>
  <polygon points="180,305.0 180,330 155.0,330" fill="#D0D0D0" stroke="#333" stroke-width="0.5"/>
  <polygon points="130,305.0 155.0,330 130,330" fill="#B0B0B0" stroke="#333" stroke-width="0.5"/>
  <polygon points="180,280 230,280 180,330" fill="#D0D0D0" stroke="#333" stroke-width="0.5"/>
  <polygon points="230,280 230,330 180,330" fill="#B0B0B0" stroke="#333" stroke-width="0.5"/>
  <rect x="230.0" y="280.0" width="16.666666666666668" height="16.666666666666668" fill="#D0D0D0" stroke="#333" stroke-width="0.5"/>
  <rect x="246.66666666666666" y="280.0" width="16.666666666666668" height="16.666666666666668" fill="#B0B0B0" stroke="#333" stroke-width="0.5"/>
  <rect x="263.3333333333333" y="280.0" width="16.666666666666668" height="16.666666666666668" fill="#D0D0D0" stroke="#333" stroke-width="0.5"/>
  <rect x="230.0" y="296.6666666666667" width="16.666666666666668" height="16.666666666666668" fill="#B0B0B0" stroke="#333" stroke-width="0.5"/>
  <rect x="246.66666666666666" y="296.6666666666667" width="16.666666666666668" height="16.666666666666668" fill="#D0D0D0" stroke="#333" stroke-width="0.5"/>
  <rect x="263.3333333333333" y="296.6666666666667" width="16.666666666666668" height="16.666666666666668" fill="#B0B0B0" stroke="#333" stroke-width="0.5"/>
  <rect x="230.0" y="313.3333333333333" width="16.666666666666668" height="16.666666666666668" fill="#D0D0D0" stroke="#333" stroke-width="0.5"/>
  <rect x="246.66666666666666" y="313.3333333333333" width="16.666666666666668" height="16.666666666666668" fill="#B0B0B0" stroke="#333" stroke-width="0.5"/>
  <rect x="263.3333333333333" y="313.3333333333333" width="16.666666666666668" height="16.666666666666668" fill="#D0D0D0" stroke="#333" stroke-width="0.5"/>
  <polygon points="280,280 305.0,280 280,305.0" fill="#D0D0D0" stroke="#333" stroke-width="0.5"/>
  <polygon points="305.0,280 330,280 330,305.0" fill="#B0B0B0" stroke="#333" stroke-width="0.5"/>
  <polygon points="330,305.0 330,330 305.0,330" fill="#D0D0D0" stroke="#333" stroke-width="0.5"/>
  <polygon points="280,305.0 305.0,330 280,330" fill="#B0B0B0" stroke="#333" stroke-width="0.5"/>
  <rect x="30.0" y="330.0" width="16.666666666666668" height="16.666666666666668" fill="#D0D0D0" stroke="#333" stroke-width="0.5"/>
  <rect x="46.66666666666667" y="330.0" width="16.666666666666668" height="16.666666666666668" fill="#B0B0B0" stroke="#333" stroke-width="0.5"/>
  <rect x="63.333333333333336" y="330.0" width="16.666666666666668" height="16.666666666666668" fill="#D0D0D0" stroke="#333" stroke-width="0.5"/>
  <rect x="30.0" y="346.6666666666667" width="16.666666666666668" height="16.666666666666668" fill="#B0B0B0" stroke="#333" stroke-width="0.5"/>
  <rect x="46.66666666666667" y="346.6666666666667" width="16.666666666666668" height="16.666666666666668" fill="#D0D0D0" stroke="#333" stroke-width="0.5"/>
  <rect x="63.333333333333336" y="346.6666666666667" width="16.666666666666668" height="16.666666666666668" fill="#B0B0B0" stroke="#333" stroke-width="0.5"/>
  <rect x="30.0" y="363.3333333333333" width="16.666666666666668" height="16.666666666666668" fill="#D0D0D0" stroke="#333" stroke-width="0.5"/>
  <rect x="46.66666666666667" y="363.3333333333333" width="16.666666666666668" height="16.666666666666668" fill="#B0B0B0" stroke="#333" stroke-width="0.5"/>
  <rect x="63.333333333333336" y="363.3333333333333" width="16.666666666666668" height="16.666666666666668" fill="#D0D0D0" stroke="#333" stroke-width="0.5"/>
  <polygon points="80,330 105.0,330 80,355.0" fill="#D0D0D0" stroke="#333" stroke-width="0.5"/>
  <polygon points="105.0,330 130,330 130,355.0" fill="#B0B0B0" stroke="#333" stroke-width="0.5"/>
  <polygon points="130,355.0 130,380 105.0,380" fill="#D0D0D0" stroke="#333" stroke-width="0.5"/>
  <polygon points="80,355.0 105.0,380 80,380" fill="#B0B0B0" stroke="#333" stroke-width="0.5"/>
  <polygon points="130,330 180,330 130,380" fill="#D0D0D0" stroke="#333" stroke-width="0.5"/>
  <polygon points="180,330 180,380 130,380" fill="#B0B0B0" stroke="#333" stroke-width="0.5"/>
  <rect x="180.0" y="330.0" width="16.666666666666668" height="16.666666666666668" fill="#D0D0D0" stroke="#333" stroke-width="0.5"/>
  <rect x="196.66666666666666" y="330.0" width="16.666666666666668" height="16.666666666666668" fill="#B0B0B0" stroke="#333" stroke-width="0.5"/>
  <rect x="213.33333333333334" y="330.0" width="16.666666666666668" height="16.666666666666668" fill="#D0D0D0" stroke="#333" stroke-width="0.5"/>
  <rect x="180.0" y="346.6666666666667" width="16.666666666666668" height="16.666666666666668" fill="#B0B0B0" stroke="#333" stroke-width="0.5"/>
  <rect x="196.66666666666666" y="346.6666666666667" width="16.666666666666668" height="16.666666666666668" fill="#D0D0D0" stroke="#333" stroke-width="0.5"/>
  <rect x="213.33333333333334" y="346.6666666666667" width="16.666666666666668" height="16.666666666666668" fill="#B0B0B0" stroke="#333" stroke-width="0.5"/>
  <rect x="180.0" y="363.3333333333333" width="16.666666666666668" height="16.666666666666668" fill="#D0D0D0" stroke="#333" stroke-width="0.5"/>
  <rect x="196.66666666666666" y="363.3333333333333" width="16.666666666666668" height="16.666666666666668" fill="#B0B0B0" stroke="#333" stroke-width="0.5"/>
  <rect x="213.33333333333334" y="363.3333333333333" width="16.666666666666668" height="16.666666666666668" fill="#D0D0D0" stroke="#333" stroke-width="0.5"/>
  <polygon points="230,330 255.0,330 230,355.0" fill="#D0D0D0" stroke="#333" stroke-width="0.5"/>
  <polygon points="255.0,330 280,330 280,355.0" fill="#B0B0B0" stroke="#333" stroke-width="0.5"/>
  <polygon points="280,355.0 280,380 255.0,380" fill="#D0D0D0" stroke="#333" stroke-width="0.5"/>
  <polygon points="230,355.0 255.0,380 230,380" fill="#B0B0B0" stroke="#333" stroke-width="0.5"/>
  <polygon points="280,330 330,330 280,380" fill="#D0D0D0" stroke="#333" stroke-width="0.5"/>
  <polygon points="330,330 330,380 280,380" fill="#B0B0B0" stroke="#333" stroke-width="0.5"/>
  <polygon points="30,380 55.0,380 30,405.0" fill="#D0D0D0" stroke="#333" stroke-width="0.5"/>
  <polygon points="55.0,380 80,380 80,405.0" fill="#B0B0B0" stroke="#333" stroke-width="0.5"/>
  <polygon points="80,405.0 80,430 55.0,430" fill="#D0D0D0" stroke="#333" stroke-width="0.5"/>
  <polygon points="30,405.0 55.0,430 30,430" fill="#B0B0B0" stroke="#333" stroke-width="0.5"/>
  <polygon points="80,380 130,380 80,430" fill="#D0D0D0" stroke="#333" stroke-width="0.5"/>
  <polygon points="130,380 130,430 80,430" fill="#B0B0B0" stroke="#333" stroke-width="0.5"/>
  <rect x="130.0" y="380.0" width="16.666666666666668" height="16.666666666666668" fill="#D0D0D0" stroke="#333" stroke-width="0.5"/>
  <rect x="146.66666666666666" y="380.0" width="16.666666666666668" height="16.666666666666668" fill="#B0B0B0" stroke="#333" stroke-width="0.5"/>
  <rect x="163.33333333333334" y="380.0" width="16.666666666666668" height="16.666666666666668" fill="#D0D0D0" stroke="#333" stroke-width="0.5"/>
  <rect x="130.0" y="396.6666666666667" width="16.666666666666668" height="16.666666666666668" fill="#B0B0B0" stroke="#333" stroke-width="0.5"/>
  <rect x="146.66666666666666" y="396.6666666666667" width="16.666666666666668" height="16.666666666666668" fill="#D0D0D0" stroke="#333" stroke-width="0.5"/>
  <rect x="163.33333333333334" y="396.6666666666667" width="16.666666666666668" height="16.666666666666668" fill="#B0B0B0" stroke="#333" stroke-width="0.5"/>
  <rect x="130.0" y="413.3333333333333" width="16.666666666666668" height="16.666666666666668" fill="#D0D0D0" stroke="#333" stroke-width="0.5"/>
  <rect x="146.66666666666666" y="413.3333333333333" width="16.666666666666668" height="16.666666666666668" fill="#B0B0B0" stroke="#333" stroke-width="0.5"/>
  <rect x="163.33333333333334" y="413.3333333333333" width="16.666666666666668" height="16.666666666666668" fill="#D0D0D0" stroke="#333" stroke-width="0.5"/>
  <polygon points="180,380 205.0,380 180,405.0" fill="#D0D0D0" stroke="#333" stroke-width="0.5"/>
  <polygon points="205.0,380 230,380 230,405.0" fill="#B0B0B0" stroke="#333" stroke-width="0.5"/>
  <polygon points="230,405.0 230,430 205.0,430" fill="#D0D0D0" stroke="#333" stroke-width="0.5"/>
  <polygon points="180,405.0 205.0,430 180,430" fill="#B0B0B0" stroke="#333" stroke-width="0.5"/>
  <polygon points="230,380 280,380 230,430" fill="#D0D0D0" stroke="#333" stroke-width="0.5"/>
  <polygon points="280,380 280,430 230,430" fill="#B0B0B0" stroke="#333" stroke-width="0.5"/>
  <rect x="280.0" y="380.0" width="16.666666666666668" height="16.666666666666668" fill="#D0D0D0" stroke="#333" stroke-width="0.5"/>
  <rect x="296.6666666666667" y="380.0" width="16.666666666666668" height="16.666666666666668" fill="#B0B0B0" stroke="#333" stroke-width="0.5"/>
  <rect x="313.3333333333333" y="380.0" width="16.666666666666668" height="16.666666666666668" fill="#D0D0D0" stroke="#333" stroke-width="0.5"/>
  <rect x="280.0" y="396.6666666666667" width="16.666666666666668" height="16.666666666666668" fill="#B0B0B0" stroke="#333" stroke-width="0.5"/>
  <rect x="296.6666666666667" y="396.6666666666667" width="16.666666666666668" height="16.666666666666668" fill="#D0D0D0" stroke="#333" stroke-width="0.5"/>
  <rect x="313.3333333333333" y="396.6666666666667" width="16.666666666666668" height="16.666666666666668" fill="#B0B0B0" stroke="#333" stroke-width="0.5"/>
  <rect x="280.0" y="413.3333333333333" width="16.666666666666668" height="16.666666666666668" fill="#D0D0D0" stroke="#333" stroke-width="0.5"/>
  <rect x="296.6666666666667" y="413.3333333333333" width="16.666666666666668" height="16.666666666666668" fill="#B0B0B0" stroke="#333" stroke-width="0.5"/>
  <rect x="313.3333333333333" y="413.3333333333333" width="16.666666666666668" height="16.666666666666668" fill="#D0D0D0" stroke="#333" stroke-width="0.5"/>
</svg>