<?xml version="1.0" encoding="UTF-8"?>
<svg xmlns="http://www.w3.org/2000/svg" viewBox="0 0 360 520" width="360" height="520">
  <rect x="0" y="0" width="360" height="520" fill="#F8F8F8" stroke="#333" stroke-width="2"/>
  <rect x="30.0" y="35.0" width="16.666666666666668" height="16.666666666666668" fill="#D0D0D0" stroke="#333" stroke-width="0.5"/>
  <rect x="46.66666666666667" y="35.0" width="16.666666666666668" height="16.666666666666668" fill="#E0E0E0" stroke="#333" stroke-width="0.5"/>
  <rect x="63.333333333333336" y="35.0" width="16.666666666666668" height="16.666666666666668" fill="#D0D0D0" stroke="#333" stroke-width="0.5"/>
  <rect x="30.0" y="51.66666666666667" width="16.666666666666668" height="16.666666666666668" fill="#E0E0E0" stroke="#333" stroke-width="0.5"/>
  <rect x="46.66666666666667" y="51.66666666666667" width="16.666666666666668" height="16.666666666666668" fill="#D0D0D0" stroke="#333" stroke-width="0.5"/>
  <rect x="63.333333333333336" y="51.66666666666667" width="16.666666666666668" height="16.666666666666668" fill="#E0E0E0" stroke="#333" stroke-width="0.5"/>
  <rect x="30.0" y="68.33333333333334" width="16.666666666666668" height="16.666666666666668" fill="#D0D0D0" stroke="#333" stroke-width="0.5"/>
  <rect x="46.66666666666667" y="68.33333333333334" width="16.666666666666668" height="16.666666666666668" fill="#E0E0E0" stroke="#333" stroke-width="0.5"/>
  <rect x="63.333333333333336" y="68.33333333333334" width="16.666666666666668" height="16.666666666666668" fill="#D0D0D0" stroke="#333" stroke-width="0.5"/>
  <polygon points="80,35 105.0,35 80,60.0" fill="#B0B0B0" stroke="#333" stroke-width="0.5"/>
  <polygon points="105.0,35 130,35 130,60.0" fill="#D0D0D0" stroke="#333" stroke-width="0.5"/>
  <polygon points="130,60.0 130,85 105.0,85" fill="#B0B0B0" stroke="#333" stroke-width="0.5"/>
  <polygon points="80,60.0 105.0,85 80,85" fill="#D0D0D0" stroke="#333" stroke-width="0.5"/>
  <polygon points="130,35 180,35 130,85" fill="#505050" stroke="#333" stroke-width="0.5"/>
  <polygon points="180,35 180,85 130,85" fill="#E0E0E0" stroke="#333" stroke-width="0.5"/>
  <rect x="180" y="35" width="50" height="50" fill="#A0A0A0" stroke="#333" stroke-width="0.5"/>
  <rect x="230.0" y="35.0" width="16.666666666666668" height="16.666666666666668" fill="#D0D0D0" stroke="#333" stroke-width="0.5"/>
  <rect x="246.66666666666666" y="35.0" width="16.666666666666668" height="16.666666666666668" fill="#E0E0E0" stroke="#333" stroke-width="0.5"/>
  <rect x="263.3333333333333" y="35.0" width="16.666666666666668" height="16.666666666666668" fill="#D0D0D0" stroke="#333" stroke-width="0.5"/>
  <rect x="230.0" y="51.66666666666667" width="16.666666666666668" height="16.666666666666668" fill="#E0E0E0" stroke="#333" stroke-width="0.5"/>
  <rect x="246.66666666666666" y="51.66666666666667" width="16.666666666666668" height="16.666666666666668" fill="#D0D0D0" stroke="#333" stroke-width="0.5"/>
  <rect x="263.3333333333333" y="51.66666666666667" width="16.666666666666668" height="16.666666666666668" fill="#E0E0E0" stroke="#333" stroke-width="0.5"/>
  <rect x="230.0" y="68.33333333333334" width="16.666666666666668" height="16.666666666666668" fill="#D0D0D0" stroke="#333" stroke-width="0.5"/>
  <rect x="246.66666666666666" y="68.33333333333334" width="16.666666666666668" height="16.666666666666668" fill="#E0E0E0" stroke="#333" stroke-width="0.5"/>
  <rect x="263.3333333333333" y="68.33333333333334" width="16.666666666666668" height="16.666666666666668" fill="#D0D0D0" stroke="#333" stroke-width="0.5"/>
  <polygon points="280,35 305.0,35 280,60.0" fill="#B0B0B0" stroke="#333" stroke-width="0.5"/>
  <polygon points="305.0,35 330,35 330,60.0" fill="#D0D0D0" stroke="#333" stroke-width="0.5"/>
  <polygon points="330,60.0 330,85 305.0,85" fill="#B0B0B0" stroke="#333" stroke-width="0.5"/>
  <polygon points="280,60.0 305.0,85 280,85" fill="#D0D0D0" stroke="#333" stroke-width="0.5"/>
  <polygon points="30,85 80,85 30,135" fill="#505050" stroke="#333" stroke-width="0.5"/>
  <polygon points="80,85 80,135 30,135" fill="#E0E0E0" stroke="#333" stroke-width="0.5"/>
  <rect x="80" y="85" width="50" height="50" fill="#A0A0A0" stroke="#333" stroke-width="0.5"/>
  <rect x="130.0" y="85.0" width="16.666666666666668" height="16.666666666666668" fill="#D0D0D0" stroke="#333" stroke-width="0.5"/>
  <rect x="146.66666666666666" y="85.0" width="16.666666666666668" height="16.666666666666668" fill="#E0E0E0" stroke="#333" stroke-width="0.5"/>
  <rect x="163.33333333333334" y="85.0" width="16.666666666666668" height="16.666666666666668" fill="#D0D0D0" stroke="#333" stroke-width="0.5"/>
  <rect x="130.0" y="101.66666666666667" width="16.666666666666668" height="16.666666666666668" fill="#E0E0E0" stroke="#333" stroke-width="0.5"/>
  <rect x="146.66666666666666" y="101.66666666666667" width="16.666666666666668" height="16.666666666666668" fill="#D0D0D0" stroke="#333" stroke-width="0.5"/>
  <rect x="163.33333333333334" y="101.66666666666667" width="16.666666666666668" height="16.666666666666668" fill="#E0E0E0" stroke="#333" stroke-width="0.5"/>
  <rect x="130.0" y="118.33333333333334" width="16.666666666666668" height="16.666666666666668" fill="#D0D0D0" stroke="#333" stroke-width="0.5"/>
  <rect x="146.66666666666666" y="118.33333333333334" width="16.666666666666668" height="16.666666666666668" fill="#E0E0E0" stroke="#333" stroke-width="0.5"/>
  <rect x="163.33333333333334" y="118.33333333333334" width="16.666666666666668" height="16.666666666666668" fill="#D0D0D0" stroke="#333" stroke-width="0.5"/>
  <polygon points="180,85 205.0,85 180,110.0" fill="#B0B0B0" stroke="#333" stroke-width="0.5"/>
  <polygon points="205.0,85 230,85 230,110.0" fill="#D0D0D0" stroke="#333" stroke-width="0.5"/>
  <polygon points="230,110.0 230,135 205.0,135" fill="#B0B0B0" stroke="#333" stroke-width="0.5"/>
  <polygon points="180,110.0 205.0,135 180,135" fill="#D0D0D0" stroke="#333" stroke-width="0.5"/>
  <polygon points="230,85 280,85 230,135" fill="#505050" stroke="#333" stroke-width="0.5"/>
  <polygon points="280,85 280,135 230,135" fill="#E0E0E0" stroke="#333" stroke-width="0.5"/>
  <rect x="280" y="85" width="50" height="50" fill="#A0A0A0" stroke="#333" stroke-width="0.5"/>
  <rect x="30.0" y="135.0" width="16.666666666666668" height="16.666666666666668" fill="#D0D0D0" stroke="#333" stroke-width="0.5"/>
  <rect x="46.66666666666667" y="135.0" width="16.666666666666668" height="16.666666666666668" fill="#E0E0E0" stroke="#333" stroke-width="0.5"/>
  <rect x="63.333333333333336" y="135.0" width="16.666666666666668" height="16.666666666666668" fill="#D0D0D0" stroke="#333" stroke-width="0.5"/>
  <rect x="30.0" y="151.66666666666666" width="16.666666666666668" height="16.666666666666668" fill="#E0E0E0" stroke="#333" stroke-width="0.5"/>
  <rect x="46.66666666666667" y="151.66666666666666" width="16.666666666666668" height="16.666666666666668" fill="#D0D0D0" stroke="#333" stroke-width="0.5"/>
  <rect x="63.333333333333336" y="151.66666666666666" width="16.666666666666668" height="16.666666666666668" fill="#E0E0E0" stroke="#333" stroke-width="0.5"/>
  <rect x="30.0" y="168.33333333333334" width="16.666666666666668" height="16.666666666666668" fill="#D0D0D0" stroke="#333" stroke-width="0.5"/>
  <rect x="46.66666666666667" y="168.33333333333334" width="16.666666666666668" height="16.666666666666668" fill="#E0E0E0" stroke="#333" stroke-width="0.5"/>
  <rect x="63.333333333333336" y="168.33333333333334" width="16.666666666666668" height="16.666666666666668" fill="#D0D0D0" stroke="#333" stroke-width="0.5"/>
  <polygon points="80,135 105.0,135 80,160.0" fill="#B0B0B0" stroke="#333" stroke-width="0.5"/>
  <polygon points="105.0,135 130,135 130,160.0" fill="#D0D0D0" stroke="#333" stroke-width="0.5"/>
  <polygon points="130,160.0 130,185 105.0,185" fill="#B0B0B0" stroke="#333" stroke-width="0.5"/>
  <polygon points="80,160.0 105.0,185 80,185" fill="#D0D0D0" stroke="#333" stroke-width="0.5"/>
  <polygon points="130,135 180,135 130,185" fill="#505050" stroke="#333" stroke-width="0.5"/>
  <polygon points="180,135 180,185 130,185" fill="#E0E0E0" stroke="#333" stroke-width="0.5"/>
  <rect x="180" y="135" width="50" height="50" fill="#A0A0A0" stroke="#333" stroke-width="0.5"/>
  <rect x="230.0" y="135.0" width="16.666666666666668" height="16.666666666666668" fill="#D0D0D0" stroke="#333" stroke-width="0.5"/>
  <rect x="246.66666666666666" y="135.0" width="16.666666666666668" height="16.666666666666668" fill="#E0E0E0" stroke="#333" stroke-width="0.5"/>
  <rect x="263.3333333333333" y="135.0" width="16.666666666666668" height="16.666666666666668" fill="#D0D0D0" stroke="#333" stroke-width="0.5"/>
  <rect x="230.0" y="151.66666666666666" width="16.666666666666668" height="16.666666666666668" fill="#E0E0E0" stroke="#333" stroke-width="0.5"/>
  <rect x="246.66666666666666" y="151.66666666666666" width="16.666666666666668" height="16.666666666666668" fill="#D0D0D0" stroke="#333" stroke-width="0.5"/>
  <rect x="263.3333333333333" y="151.66666666666666" width="16.666666666666668" height="16.666666666666668" fill="#E0E0E0" stroke="#333" stroke-width="0.5"/>
  <rect x="230.0" y="168.33333333333334" width="16.666666666666668" height="16.666666666666668" fill="#D0D0D0" stroke="#333" stroke-width="0.5"/>
  <rect x="246.66666666666666" y="168.33333333333334" width="16.666666666666668" height="16.666666666666668" fill="#E0E0E0" stroke="#333" stroke-width="0.5"/>
  <rect x="263.3333333333333" y="168.33333333333334" width="16.666666666666668" height="16.666666666666668" fill="#D0D0D0" stroke="#333" stroke-width="0.5"/>
  <polygon points="280,135 305.0,135 280,160.0" fill="#B0B0B0" stroke="#333" stroke-width="0.5"/>
  <polygon points="305.0,135 330,135 330,160.0" fill="#D0D0D0" stroke="#333" stroke-width="0.5"/>
  <polygon points="330,160.0 330,185 305.0,185" fill="#B0B0B0" stroke="#333" stroke-width="0.5"/>
  <polygon points="280,160.0 305.0,185 280,185" fill="#D0D0D0" stroke="#333" stroke-width="0.5"/>
  <polygon points="30,185 80,185 30,235" fill="#505050" stroke="#333" stroke-width="0.5"/>
  <polygon points="80,185 80,235 30,235" fill="#E0E0E0" stroke="#333" stroke-width="0.5"/>
  <rect x="80" y="185" width="50" height="50" fill="#A0A0A0" stroke="#333" stroke-width="0.5"/>
  <rect x="130.0" y="185.0" width="16.666666666666668" height="16.666666666666668" fill="#D0D0D0" stroke="#333" stroke-width="0.5"/>
  <rect x="146.66666666666666" y="185.0" width="16.666666666666668" height="16.666666666666668" fill="#E0E0E0" stroke="#333" stroke-width="0.5"/>
  <rect x="163.33333333333334" y="185.0" width="16.666666666666668" height="16.666666666666668" fill="#D0D0D0" stroke="#333" stroke-width="0.5"/>
  <rect x="130.0" y="201.66666666666666" width="16.666666666666668" height="16.666666666666668" fill="#E0E0E0" stroke="#333" stroke-width="0.5"/>
  <rect x="146.66666666666666" y="201.66666666666666" width="16.666666666666668" height="16.666666666666668" fill="#D0D0D0" stroke="#333" stroke-width="0.5"/>
  <rect x="163.33333333333334" y="201.66666666666666" width="16.666666666666668" height="16.666666666666668" fill="#E0E0E0" stroke="#333" stroke-width="0.5"/>
  <rect x="130.0" y="218.33333333333334" width="16.666666666666668" height="16.666666666666668" fill="#D0D0D0" stroke="#333" stroke-width="0.5"/>
  <rect x="146.66666666666666" y="218.33333333333334" width="16.666666666666668" height="16.666666666666668" fill="#E0E0E0" stroke="#333" stroke-width="0.5"/>
  <rect x="163.33333333333334" y="218.33333333333334" width="16.666666666666668" height="16.666666666666668" fill="#D0D0D0" stroke="#333" stroke-width="0.5"/>
  <polygon points="180,185 205.0,185 180,210.0" fill="#B0B0B0" stroke="#333" stroke-width="0.5"/>
  <polygon points="205.0,185 230,185 230,210.0" fill="#D0D0D0" stroke="#333" stroke-width="0.5"/>
  <polygon points="230,210.0 230,235 205.0,235" fill="#B0B0B0" stroke="#333" stroke-width="0.5"/>
  <polygon points="180,210.0 205.0,235 180,235" fill="#D0D0D0" stroke="#333" stroke-width="0.5"/>
  <polygon points="230,185 280,185 230,235" fill="#505050" stroke="#333" stroke-width="0.5"/>
  <polygon points="280,185 280,235 230,235" fill="#E0E0E0" stroke="#333" stroke-width="0.5"/>
  <rect x="280" y="185" width="50" height="50" fill="#A0A0A0" stroke="#333" stroke-width="0.5"/>
  <rect x="30.0" y="235.0" width="16.666666666666668" height="16.666666666666668" fill="#D0D0D0" stroke="#333" stroke-width="0.5"/>
  <rect x="46.66666666666667" y="235.0" width="16.666666666666668" height="16.666666666666668" fill="#E0E0E0" stroke="#333" stroke-width="0.5"/>
  <rect x="63.333333333333336" y="235.0" width="16.666666666666668" height="16.666666666666668" fill="#D0D0D0" stroke="#333" stroke-width="0.5"/>
  <rect x="30.0" y="251.66666666666666" width="16.666666666666668" height="16.666666666666668" fill="#E0E0E0" stroke="#333" stroke-width="0.5"/>
  <rect x="46.66666666666667" y="251.66666666666666" width="16.666666666666668" height="16.666666666666668" fill="#D0D0D0" stroke="#333" stroke-width="0.5"/>
  <rect x="63.333333333333336" y="251.66666666666666" width="16.666666666666668" height="16.666666666666668" fill="#E0E0E0" stroke="#333" stroke-width="0.5"/>
  <rect x="30.0" y="268.3333333333333" width="16.666666666666668" height="16.666666666666668" fill="#D0D0D0" stroke="#333" stroke-width="0.5"/>
  <rect x="46.66666666666667" y="268.3333333333333" width="16.666666666666668" height="16.666666666666668" fill="#E0E0E0" stroke="#333" stroke-width="0.5"/>
  <rect x="63.333333333333336" y="268.3333333333333" width="16.666666666666668" height="16.666666666666668" fill="#D0D0D0" stroke="#333" stroke-width="0.5"/>
  <polygon points="80,235 105.0,235 80,260.0" fill="#B0B0B0" stroke="#333" stroke-width="0.5"/>
  <polygon points="105.0,235 130,235 130,260.0" fill="#D0D0D0" stroke="#333" stroke-width="0.5"/>
  <polygon points="130,260.0 130,285 105.0,285" fill="#B0B0B0" stroke="#333" stroke-width="0.5"/>
  <polygon points="80,260.0 105.0,285 80,285" fill="#D0D0D0" stroke="#333" stroke-width="0.5"/>
  <polygon points="130,235 180,235 130,285" fill="#505050" stroke="#333" stroke-width="0.5"/>
  <polygon points="180,235 180,285 130,285" fill="#E0E0E0" stroke="#333" stroke-width="0.5"/>
  <rect x="180" y="235" width="50" height="50" fill="#A0A0A0" stroke="#333" stroke-width="0.5"/>
  <rect x="230.0" y="235.0" width="16.666666666666668" height="16.666666666666668" fill="#D0D0D0" stroke="#333" stroke-width="0.5"/>
  <rect x="246.66666666666666" y="235.0" width="16.666666666666668" height="16.666666666666668" fill="#E0E0E0" stroke="#333" stroke-width="0.5"/>
  <rect x="263.3333333333333" y="235.0" width="16.666666666666668" height="16.666666666666668" fill="#D0D0D0" stroke="#333" stroke-width="0.5"/>
  <rect x="230.0" y="251.66666666666666" width="16.666666666666668" height="16.666666666666668" fill="#E0E0E0" stroke="#333" stroke-width="0.5"/>
  <rect x="246.66666666666666" y="251.66666666666666" width="16.666666666666668" height="16.666666666666668" fill="#D0D0D0" stroke="#333" stroke-width="0.5"/>
  <rect x="263.3333333333333" y="251.66666666666666" width="16.666666666666668" height="16.666666666666668" fill="#E0E0E0" stroke="#333" stroke-width="0.5"/>
  <rect x="230.0" y="268.3333333333333" width="16.666666666666668" height="16.666666666666668" fill="#D0D0D0" stroke="#333" stroke-width="0.5"/>
  <rect x="246.66666666666666" y="268.3333333333333" width="16.666666666666668" height="16.666666666666668" fill="#E0E0E0" stroke="#333" stroke-width="0.5"/>
  <rect x="263.3333333333333" y="268.3333333333333" width="16.666666666666668" height="16.666666666666668" fill="#D0D0D0" stroke="#333" stroke-width="0.5"/>
  <polygon points="280,235 305.0,235 280,260.0" fill="#B0B0B0" stroke="#333" stroke-width="0.5"/>
  <polygon points="305.0,235 330,235 330,260.0" fill="#D0D0D0" stroke="#333" stroke-width="0.5"/>
  <polygon points="330,260.0 330,285 305.0,285" fill="#B0B0B0" stroke="#333" stroke-width="0.5"/>
  <polygon points="280,260.0 305.0,285 280,285" fill="#D0D0D0" stroke="#333" stroke-width="0.5"/>
  <polygon points="30,285 80,285 30,335" fill="#505050" stroke="#333" stroke-width="0.5"/>
  <polygon points="80,285 80,335 30,335" fill="#E0E0E0" stroke="#333" stroke-width="0.5"/>
  <rect x="80" y="285" width="50" height="50" fill="#A0A0A0" stroke="#333" stroke-width="0.5"/>
  <rect x="130.0" y="285.0" width="16.666666666666668" height="16.666666666666668" fill="#D0D0D0" stroke="#333" stroke-width="0.5"/>
  <rect x="146.66666666666666" y="285.0" width="16.666666666666668" height="16.666666666666668" fill="#E0E0E0" stroke="#333" stroke-width="0.5"/>
  <rect x="163.33333333333334" y="285.0" width="16.666666666666668" height="16.666666666666668" fill="#D0D0D0" stroke="#333" stroke-width="0.5"/>
  <rect x="130.0" y="301.6666666666667" width="16.666666666666668" height="16.666666666666668" fill="#E0E0E0" stroke="#333" stroke-width="0.5"/>
  <rect x="146.66666666666666" y="301.6666666666667" width="16.666666666666668" height="16.666666666666668" fill="#D0D0D0" stroke="#333" stroke-width="0.5"/>
  <rect x="163.33333333333334" y="301.6666666666667" width="16.666666666666668" height="16.666666666666668" fill="#E0E0E0" stroke="#333" stroke-width="0.5"/>
  <rect x="130.0" y="318.3333333333333" width="16.666666666666668" height="16.666666666666668" fill="#D0D0D0" stroke="#333" stroke-width="0.5"/>
  <rect x="146.66666666666666" y="318.3333333333333" width="16.666666666666668" height="16.666666666666668" fill="#E0E0E0" stroke="#333" stroke-width="0.5"/>
  <rect x="163.33333333333334" y="318.3333333333333" width="16.666666666666668" height="16.666666666666668" fill="#D0D0D0" stroke="#333" stroke-width="0.5"/>
  <polygon points="180,285 205.0,285 180,310.0" fill="#B0B0B0" stroke="#333" stroke-width="0.5"/>
  <polygon points="205.0,285 230,285 230,310.0" fill="#D0D0D0" stroke="#333" stroke-width="0.5"/>
  <polygon points="230,310.0 230,335 205.0,335" fill="#B0B0B0" stroke="#333" stroke-width="0.5"/>
  <polygon points="180,310.0 205.0,335 180,335" fill="#D0D0D0" stroke="#333" stroke-width="0.5"/>
  <polygon points="230,285 280,285 230,335" fill="#505050" stroke="#333" stroke-width="0.5"/>
  <polygon points="280,285 280,335 230,335" fill="#E0E0E0" stroke="#333" stroke-width="0.5"/>
  <rect x="280" y="285" width="50" height="50" fill="#A0A0A0" stroke="#333" stroke-width="0.5"/>
  <rect x="30.0" y="335.0" width="16.666666666666668" height="16.666666666666668" fill="#D0D0D0" stroke="#333" stroke-width="0.5"/>
  <rect x="46.66666666666667" y="335.0" width="16.666666666666668" height="16.666666666666668" fill="#E0E0E0" stroke="#333" stroke-width="0.5"/>
  <rect x="63.333333333333336" y="335.0" width="16.666666666666668" height="16.666666666666668" fill="#D0D0D0" stroke="#333" stroke-width="0.5"/>
  <rect x="30.0" y="351.6666666666667" width="16.666666666666668" height="16.666666666666668" fill="#E0E0E0" stroke="#333" stroke-width="0.5"/>
  <rect x="46.66666666666667" y="351.6666666666667" width="16.666666666666668" height="16.666666666666668" fill="#D0D0D0" stroke="#333" stroke-width="0.5"/>
  <rect x="63.333333333333336" y="351.6666666666667" width="16.666666666666668" height="16.666666666666668" fill="#E0E0E0" stroke="#333" stroke-width="0.5"/>
  <rect x="30.0" y="368.3333333333333" width="16.666666666666668" height="16.666666666666668" fill="#D0D0D0" stroke="#333" stroke-width="0.5"/>
  <rect x="46.66666666666667" y="368.3333333333333" width="16.666666666666668" height="16.666666666666668" fill="#E0E0E0" stroke="#333" stroke-width="0.5"/>
  <rect x="63.333333333333336" y="368.3333333333333" width="16.666666666666668" height="16.666666666666668" fill="#D0D0D0" stroke="#333" stroke-width="0.5"/>
  <polygon points="80,335 105.0,335 80,360.0" fill="#B0B0B0" stroke="#333" stroke-width="0.5"/>
  <polygon points="105.0,335 130,335 130,360.0" fill="#D0D0D0" stroke="#333" stroke-width="0.5"/>
  <polygon points="130,360.0 130,385 105.0,385" fill="#B0B0B0" stroke="#333" stroke-width="0.5"/>
  <polygon points="80,360.0 105.0,385 80,385" fill="#D0D0D0" stroke="#333" stroke-width="0.5"/>
  <polygon points="130,335 180,335 130,385" fill="#505050" stroke="#333" stroke-width="0.5"/>
  <polygon points="180,335 180,385 130,385" fill="#E0E0E0" stroke="#333" stroke-width="0.5"/>
  <rect x="180" y="335" width="50" height="50" fill="#A0A0A0" stroke="#333" stroke-width="0.5"/>
  <rect x="230.0" y="335.0" width="16.666666666666668" height="16.666666666666668" fill="#D0D0D0" stroke="#333" stroke-width="0.5"/>
  <rect x="246.66666666666666" y="335.0" width="16.666666666666668" height="16.666666666666668" fill="#E0E0E0" stroke="#333" stroke-width="0.5"/>
  <rect x="263.3333333333333" y="335.0" width="16.666666666666668" height="16.666666666666668" fill="#D0D0D0" stroke="#333" stroke-width="0.5"/>
  <rect x="230.0" y="351.6666666666667" width="16.666666666666668" height="16.666666666666668" fill="#E0E0E0" stroke="#333" stroke-width="0.5"/>
  <rect x="246.66666666666666" y="351.6666666666667" width="16.666666666666668" height="16.666666666666668" fill="#D0D0D0" stroke="#333" stroke-width="0.5"/>
  <rect x="263.3333333333333" y="351.6666666666667" width="16.666666666666668" height="16.666666666666668" fill="#E0E0E0" stroke="#333" stroke-width="0.5"/>
  <rect x="230.0" y="368.3333333333333" width="16.666666666666668" height="16.666666666666668" fill="#D0D0D0" stroke="#333" stroke-width="0.5"/>
  <rect x="246.66666666666666" y="368.3333333333333" width="16.666666666666668" height="16.666666666666668" fill="#E0E0E0" stroke="#333" stroke-width="0.5"/>
  <rect x="263.3333333333333" y="368.3333333333333" width="16.666666666666668" height="16.666666666666668" fill="#D0D0D0" stroke="#333" stroke-width="0.5"/>
  <polygon points="280,335 305.0,335 280,360.0" fill="#B0B0B0" stroke="#333" stroke-width="0.5"/>
  <polygon points="305.0,335 330,335 330,360.0" fill="#D0D0D0" stroke="#333" stroke-width="0.5"/>
  <polygon points="330,360.0 330,385 305.0,385" fill="#B0B0B0" stroke="#333" stroke-width="0.5"/>
  <polygon points="280,360.0 305.0,385 280,385" fill="#D0D0D0" stroke="#333" stroke-width="0.5"/>
  <polygon points="30,385 80,385 30,435" fill="#505050" stroke="#333" stroke-width="0.5"/>
  <polygon points="80,385 80,435 30,435" fill="#E0E0E0" stroke="#333" stroke-width="0.5"/>
  <rect x="80" y="385" width="50" height="50" fill="#A0A0A0" stroke="#333" stroke-width="0.5"/>
  <rect x="130.0" y="385.0" width="16.666666666666668" height="16.666666666666668" fill="#D0D0D0" stroke="#333" stroke-width="0.5"/>
  <rect x="146.66666666666666" y="385.0" width="16.666666666666668" height="16.666666666666668" fill="#E0E0E0" stroke="#333" stroke-width="0.5"/>
  <rect x="163.33333333333334" y="385.0" width="16.666666666666668" height="16.666666666666668" fill="#D0D0D0" stroke="#333" stroke-width="0.5"/>
  <rect x="130.0" y="401.6666666666667" width="16.666666666666668" height="16.666666666666668" fill="#E0E0E0" stroke="#333" stroke-width="0.5"/>
  <rect x="146.66666666666666" y="401.6666666666667" width="16.666666666666668" height="16.666666666666668" fill="#D0D0D0" stroke="#333" stroke-width="0.5"/>
  <rect x="163.33333333333334" y="401.6666666666667" width="16.666666666666668" height="16.666666666666668" fill="#E0E0E0" stroke="#333" stroke-width="0.5"/>
  <rect x="130.0" y="418.3333333333333" width="16.666666666666668" height="16.666666666666668" fill="#D0D0D0" stroke="#333" stroke-width="0.5"/>
  <rect x="146.66666666666666" y="418.3333333333333" width="16.666666666666668" height="16.666666666666668" fill="#E0E0E0" stroke="#333" stroke-width="0.5"/>
  <rect x="163.33333333333334" y="418.3333333333333" width="16.666666666666668" height="16.666666666666668" fill="#D0D0D0" stroke="#333" stroke-width="0.5"/>
  <polygon points="180,385 205.0,385 180,410.0" fill="#B0B0B0" stroke="#333" stroke-width="0.5"/>
  <polygon points="205.0,385 230,385 230,410.0" fill="#D0D0D0" stroke="#333" stroke-width="0.5"/>
  <polygon points="230,410.0 230,435 205.0,435" fill="#B0B0B0" stroke="#333" stroke-width="0.5"/>
  <polygon points="180,410.0 205.0,435 180,435" fill="#D0D0D0" stroke="#333" stroke-width="0.5"/>
  <polygon points="230,385 280,385 230,435" fill="#505050" stroke="#333" stroke-width="0.5"/>
  <polygon points="280,385 280,435 230,435" fill="#E0E0E0" stroke="#333" stroke-width="0.5"/>
  <rect x="280" y="385" width="50" height="50" fill="#A0A0A0" stroke="#333" stroke-width="0.5"/>
  <rect x="30.0" y="435.0" width="16.666666666666668" height="16.666666666666668" fill="#D0D0D0" stroke="#333" stroke-width="0.5"/>
  <rect x="46.66666666666667" y="435.0" width="16.666666666666668" height="16.666666666666668" fill="#E0E0E0" stroke="#333" stroke-width="0.5"/>
  <rect x="63.333333333333336" y="435.0" width="16.666666666666668" height="16.666666666666668" fill="#D0D0D0" stroke="#333" stroke-width="0.5"/>
  <rect x="30.0" y="451.6666666666667" width="16.666666666666668" height="16.666666666666668" fill="#E0E0E0" stroke="#333" stroke-width="0.5"/>
  <rect x="46.66666666666667" y="451.6666666666667" width="16.666666666666668" height="16.666666666666668" fill="#D0D0D0" stroke="#333" stroke-width="0.5"/>
  <rect x="63.333333333333336" y="451.6666666666667" width="16.666666666666668" height="16.666666666666668" fill="#E0E0E0" stroke="#333" stroke-width="0.5"/>
  <rect x="30.0" y="468.3333333333333" width="16.666666666666668" height="16.666666666666668" fill="#D0D0D0" stroke="#333" stroke-width="0.5"/>
  <rect x="46.66666666666667" y="468.3333333333333" width="16.666666666666668" height="16.666666666666668" fill="#E0E0E0" stroke="#333" stroke-width="0.5"/>
  <rect x="63.333333333333336" y="468.3333333333333" width="16.666666666666668" height="16.666666666666668" fill="#D0D0D0" stroke="#333" stroke-width="0.5"/>
  <polygon points="80,435 105.0,435 80,460.0" fill="#B0B0B0" stroke="#333" stroke-width="0.5"/>
  <polygon points="105.0,435 130,435 130,460.0" fill="#D0D0D0" stroke="#333" stroke-width="0.5"/>
  <polygon points="130,460.0 130,485 105.0,485" fill="#B0B0B0" stroke="#333" stroke-width="0.5"/>
  <polygon points="80,460.0 105.0,485 80,485" fill="#D0D0D0" stroke="#333" stroke-width="0.5"/>
  <polygon points="130,435 180,435 130,485" fill="#505050" stroke="#333" stroke-width="0.5"/>
  <polygon points="180,435 180,485 130,485" fill="#E0E0E0" stroke="#333" stroke-width="0.5"/>
  <rect x="180" y="435" width="50" height="50" fill="#A0A0A0" stroke="#333" stroke-width="0.5"/>
  <rect x="230.0" y="435.0" width="16.666666666666668" height="16.666666666666668" fill="#D0D0D0" stroke="#333" stroke-width="0.5"/>
  <rect x="246.66666666666666" y="435.0" width="16.666666666666668" height="16.666666666666668" fill="#E0E0E0" stroke="#333" stroke-width="0.5"/>
  <rect x="263.3333333333333" y="435.0" width="16.666666666666668" height="16.666666666666668" fill="#D0D0D0" stroke="#333" stroke-width="0.5"/>
  <rect x="230.0" y="451.6666666666667" width="16.666666666666668" height="16.666666666666668" fill="#E0E0E0" stroke="#333" stroke-width="0.5"/>
  <rect x="246.66666666666666" y="451.6666666666667" width="16.666666666666668" height="16.666666666666668" fill="#D0D0D0" stroke="#333" stroke-width="0.5"/>
  <rect x="263.3333333333333" y="451.6666666666667" width="16.666666666666668" height="16.666666666666668" fill="#E0E0E0" stroke="#333" stroke-width="0.5"/>
  <rect x="230.0" y="468.3333333333333" width="16.666666666666668" height="16.666666666666668" fill="#D0D0D0" stroke="#333" stroke-width="0.5"/>
  <rect x="246.66666666666666" y="468.3333333333333" width="16.666666666666668" height="16.666666666666668" fill="#E0E0E0" stroke="#333" stroke-width="0.5"/>
  <rect x="263.3333333333333" y="468.3333333333333" width="16.666666666666668" height="16.666666666666668" fill="#D0D0D0" stroke="#333" stroke-width="0.5"/>
  <polygon points="280,435 305.0,435 280,460.0" fill="#B0B0B0" stroke="#333" stroke-width="0.5"/>
  <polygon points="305.0,435 330,435 330,460.0" fill="#D0D0D0" stroke="#333" stroke-width="0.5"/>
  <polygon points="330,460.0 330,485 305.0,485" fill="#B0B0B0" stroke="#333" stroke-width="0.5"/>
  <polygon points="280,460.0 305.0,485 280,485" fill="#D0D0D0" stroke="#333" stroke-width="0.5"/>
</svg>