<?xml version="1.0" encoding="UTF-8"?>
<svg xmlns="http://www.w3.org/2000/svg" viewBox="0 0 720 880" width="720" height="880">
  <rect x="0" y="0" width="720" height="880" fill="#F8F8F8" stroke="#333" stroke-width="2"/>
  <circle cx="80.0" cy="80.0" r="60" fill="none" stroke="#D0D0D0" stroke-width="15"/>
  <circle cx="80.0" cy="80.0" r="52" fill="none" stroke="#B0B0B0" stroke-width="8"/>
  <circle cx="212.0" cy="80.0" r="60" fill="none" stroke="#B0B0B0" stroke-width="15"/>
  <circle cx="212.0" cy="80.0" r="52" fill="none" stroke="#D0D0D0" stroke-width="8"/>
  <circle cx="344.0" cy="80.0" r="60" fill="none" stroke="#D0D0D0" stroke-width="15"/>
  <circle cx="344.0" cy="80.0" r="52" fill="none" stroke="#B0B0B0" stroke-width="8"/>
  <circle cx="476.0" cy="80.0" r="60" fill="none" stroke="#B0B0B0" stroke-width="15"/>
  <circle cx="476.0" cy="80.0" r="52" fill="none" stroke="#D0D0D0" stroke-width="8"/>
  <circle cx="608.0" cy="80.0" r="60" fill="none" stroke="#D0D0D0" stroke-width="15"/>
  <circle cx="608.0" cy="80.0" r="52" fill="none" stroke="#B0B0B0" stroke-width="8"/>
  <circle cx="80.0" cy="188.0" r="60" fill="none" stroke="#B0B0B0" stroke-width="15"/>
  <circle cx="80.0" cy="188.0" r="52" fill="none" stroke="#D0D0D0" stroke-width="8"/>
  <circle cx="212.0" cy="188.0" r="60" fill="none" stroke="#D0D0D0" stroke-width="15"/>
  <circle cx="212.0" cy="188.0" r="52" fill="none" stroke="#B0B0B0" stroke-width="8"/>
  <circle cx="344.0" cy="188.0" r="60" fill="none" stroke="#B0B0B0" stroke-width="15"/>
  <circle cx="344.0" cy="188.0" r="52" fill="none" stroke="#D0D0D0" stroke-width="8"/>
  <circle cx="476.0" cy="188.0" r="60" fill="none" stroke="#D0D0D0" stroke-width="15"/>
  <circle cx="476.0" cy="188.0" r="52" fill="none" stroke="#B0B0B0" stroke-width="8"/>
  <circle cx="608.0" cy="188.0" r="60" fill="none" stroke="#B0B0B0" stroke-width="15"/>
  <circle cx="608.0" cy="188.0" r="52" fill="none" stroke="#D0D0D0" stroke-width="8"/>
  <circle cx="80.0" cy="296.0" r="60" fill="none" stroke="#D0D0D0" stroke-width="15"/>
  <circle cx="80.0" cy="296.0" r="52" fill="none" stroke="#B0B0B0" stroke-width="8"/>
  <circle cx="212.0" cy="296.0" r="60" fill="none" stroke="#B0B0B0" stroke-width="15"/>
  <circle cx="212.0" cy="296.0" r="52" fill="none" stroke="#D0D0D0" stroke-width="8"/>
  <circle cx="344.0" cy="296.0" r="60" fill="none" stroke="#D0D0D0" stroke-width="15"/>
  <circle cx="344.0" cy="296.0" r="52" fill="none" stroke="#B0B0B0" stroke-width="8"/>
  <circle cx="476.0" cy="296.0" r="60" fill="none" stroke="#B0B0B0" stroke-width="15"/>
  <circle cx="476.0" cy="296.0" r="52" fill="none" stroke="#D0D0D0" stroke-width="8"/>
  <circle cx="608.0" cy="296.0" r="60" fill="none" stroke="#D0D0D0" stroke-width="15"/>
  <circle cx="608.0" cy="296.0" r="52" fill="none" stroke="#B0B0B0" stroke-width="8"/>
  <circle cx="80.0" cy="404.0" r="60" fill="none" stroke="#B0B0B0" stroke-width="15"/>
  <circle cx="80.0" cy="404.0" r="52" fill="none" stroke="#D0D0D0" stroke-width="8"/>
  <circle cx="212.0" cy="404.0" r="60" fill="none" stroke="#D0D0D0" stroke-width="15"/>
  <circle cx="212.0" cy="404.0" r="52" fill="none" stroke="#B0B0B0" stroke-width="8"/>
  <circle cx="344.0" cy="404.0" r="60" fill="none" stroke="#B0B0B0" stroke-width="15"/>
  <circle cx="344.0" cy="404.0" r="52" fill="none" stroke="#D0D0D0" stroke-width="8"/>
  <circle cx="476.0" cy="404.0" r="60" fill="none" stroke="#D0D0D0" stroke-width="15"/>
  <circle cx="476.0" cy="404.0" r="52" fill="none" stroke="#B0B0B0" stroke-width="8"/>
  <circle cx="608.0" cy="404.0" r="60" fill="none" stroke="#B0B0B0" stroke-width="15"/>
  <circle cx="608.0" cy="404.0" r="52" fill="none" stroke="#D0D0D0" stroke-width="8"/>
  <circle cx="80.0" cy="512.0" r="60" fill="none" stroke="#D0D0D0" stroke-width="15"/>
  <circle cx="80.0" cy="512.0" r="52" fill="none" stroke="#B0B0B0" stroke-width="8"/>
  <circle cx="212.0" cy="512.0" r="60" fill="none" stroke="#B0B0B0" stroke-width="15"/>
  <circle cx="212.0" cy="512.0" r="52" fill="none" stroke="#D0D0D0" stroke-width="8"/>
  <circle cx="344.0" cy="512.0" r="60" fill="none" stroke="#D0D0D0" stroke-width="15"/>
  <circle cx="344.0" cy="512.0" r="52" fill="none" stroke="#B0B0B0" stroke-width="8"/>
  <circle cx="476.0" cy="512.0" r="60" fill="none" stroke="#B0B0B0" stroke-width="15"/>
  <circle cx="476.0" cy="512.0" r="52" fill="none" stroke="#D0D0D0" stroke-width="8"/>
  <circle cx="608.0" cy="512.0" r="60" fill="none" stroke="#D0D0D0" stroke-width="15"/>
  <circle cx="608.0" cy="512.0" r="52" fill="none" stroke="#B0B0B0" stroke-width="8"/>
  <circle cx="80.0" cy="620.0" r="60" fill="none" stroke="#B0B0B0" stroke-width="15"/>
  <circle cx="80.0" cy="620.0" r="52" fill="none" stroke="#D0D0D0" stroke-width="8"/>
  <circle cx="212.0" cy="620.0" r="60" fill="none" stroke="#D0D0D0" stroke-width="15"/>
  <circle cx="212.0" cy="620.0" r="52" fill="none" stroke="#B0B0B0" stroke-width="8"/>
  <circle cx="344.0" cy="620.0" r="60" fill="none" stroke="#B0B0B0" stroke-width="15"/>
  <circle cx="344.0" cy="620.0" r="52" fill="none" stroke="#D0D0D0" stroke-width="8"/>
  <circle cx="476.0" cy="620.0" r="60" fill="none" stroke="#D0D0D0" stroke-width="15"/>
  <circle cx="476.0" cy="620.0" r="52" fill="none" stroke="#B0B0B0" stroke-width="8"/>
  <circle cx="608.0" cy="620.0" r="60" fill="none" stroke="#B0B0B0" stroke-width="15"/>
  <circle cx="608.0" cy="620.0" r="52" fill="none" stroke="#D0D0D0" stroke-width="8"/>
</svg>