<?xml version="1.0" encoding="UTF-8"?>
<svg xmlns="http://www.w3.org/2000/svg" viewBox="0 0 540 720" width="540" height="720">
  <rect x="0" y="0" width="540" height="720" fill="#F8F8F8" stroke="#333" stroke-width="2"/>
  <rect x="30" y="30" width="60" height="60" fill="#B0B0B0" stroke="#333" stroke-width="0.5"/>
  <rect x="90.0" y="30.0" width="20.0" height="20.0" fill="#E0E0E0" stroke="#333" stroke-width="0.5"/>
  <rect x="110.0" y="30.0" width="20.0" height="20.0" fill="#F8F8F8" stroke="#333" stroke-width="0.5"/>
  <rect x="130.0" y="30.0" width="20.0" height="20.0" fill="#E0E0E0" stroke="#333" stroke-width="0.5"/>
  <rect x="90.0" y="50.0" width="20.0" height="20.0" fill="#F8F8F8" stroke="#333" stroke-width="0.5"/>
  <rect x="110.0" y="50.0" width="20.0" height="20.0" fill="#E0E0E0" stroke="#333" stroke-width="0.5"/>
  <rect x="130.0" y="50.0" width="20.0" height="20.0" fill="#F8F8F8" stroke="#333" stroke-width="0.5"/>
  <rect x="90.0" y="70.0" width="20.0" height="20.0" fill="#E0E0E0" stroke="#333" stroke-width="0.5"/>
  <rect x="110.0" y="70.0" width="20.0" height="20.0" fill="#F8F8F8" stroke="#333" stroke-width="0.5"/>
  <rect x="130.0" y="70.0" width="20.0" height="20.0" fill="#E0E0E0" stroke="#333" stroke-width="0.5"/>
  <polygon points="150,30 210,30 150,90" fill="#D0D0D0" stroke="#333" stroke-width="0.5"/>
  <polygon points="210,30 210,90 150,90" fill="#E0E0E0" stroke="#333" stroke-width="0.5"/>
  <rect x="210" y="30" width="60" height="60" fill="#A0A0A0" stroke="#333" stroke-width="1"/>
  <line x1="210" y1="60.0" x2="270" y2="60.0" stroke="#333" stroke-width="1"/>
  <polygon points="270,30 330,30 270,90" fill="#D0D0D0" stroke="#333" stroke-width="0.5"/>
  <polygon points="330,30 330,90 270,90" fill="#E0E0E0" stroke="#333" stroke-width="0.5"/>
  <rect x="330.0" y="30.0" width="20.0" height="20.0" fill="#E0E0E0" stroke="#333" stroke-width="0.5"/>
  <rect x="350.0" y="30.0" width="20.0" height="20.0" fill="#F8F8F8" stroke="#333" stroke-width="0.5"/>
  <rect x="370.0" y="30.0" width="20.0" height="20.0" fill="#E0E0E0" stroke="#333" stroke-width="0.5"/>
  <rect x="330.0" y="50.0" width="20.0" height="20.0" fill="#F8F8F8" stroke="#333" stroke-width="0.5"/>
  <rect x="350.0" y="50.0" width="20.0" height="20.0" fill="#E0E0E0" stroke="#333" stroke-width="0.5"/>
  <rect x="370.0" y="50.0" width="20.0" height="20.0" fill="#F8F8F8" stroke="#333" stroke-width="0.5"/>
  <rect x="330.0" y="70.0" width="20.0" height="20.0" fill="#E0E0E0" stroke="#333" stroke-width="0.5"/>
  <rect x="350.0" y="70.0" width="20.0" height="20.0" fill="#F8F8F8" stroke="#333" stroke-width="0.5"/>
  <rect x="370.0" y="70.0" width="20.0" height="20.0" fill="#E0E0E0" stroke="#333" stroke-width="0.5"/>
  <rect x="390" y="30" width="60" height="60" fill="#B0B0B0" stroke="#333" stroke-width="0.5"/>
  <rect x="30.0" y="90.0" width="20.0" height="20.0" fill="#E0E0E0" stroke="#333" stroke-width="0.5"/>
  <rect x="50.0" y="90.0" width="20.0" height="20.0" fill="#F8F8F8" stroke="#333" stroke-width="0.5"/>
  <rect x="70.0" y="90.0" width="20.0" height="20.0" fill="#E0E0E0" stroke="#333" stroke-width="0.5"/>
  <rect x="30.0" y="110.0" width="20.0" height="20.0" fill="#F8F8F8" stroke="#333" stroke-width="0.5"/>
  <rect x="50.0" y="110.0" width="20.0" height="20.0" fill="#E0E0E0" stroke="#333" stroke-width="0.5"/>
  <rect x="70.0" y="110.0" width="20.0" height="20.0" fill="#F8F8F8" stroke="#333" stroke-width="0.5"/>
  <rect x="30.0" y="130.0" width="20.0" height="20.0" fill="#E0E0E0" stroke="#333" stroke-width="0.5"/>
  <rect x="50.0" y="130.0" width="20.0" height="20.0" fill="#F8F8F8" stroke="#333" stroke-width="0.5"/>
  <rect x="70.0" y="130.0" width="20.0" height="20.0" fill="#E0E0E0" stroke="#333" stroke-width="0.5"/>
  <rect x="90" y="90" width="60" height="60" fill="#B0B0B0" stroke="#333" stroke-width="0.5"/>
  <polygon points="150,90 210,90 150,150" fill="#D0D0D0" stroke="#333" stroke-width="0.5"/>
  <polygon points="210,90 210,150 150,150" fill="#E0E0E0" stroke="#333" stroke-width="0.5"/>
  <rect x="210" y="90" width="60" height="60" fill="#A0A0A0" stroke="#333" stroke-width="1"/>
  <polygon points="270,90 330,90 270,150" fill="#D0D0D0" stroke="#333" stroke-width="0.5"/>
  <polygon points="330,90 330,150 270,150" fill="#E0E0E0" stroke="#333" stroke-width="0.5"/>
  <rect x="330" y="90" width="60" height="60" fill="#B0B0B0" stroke="#333" stroke-width="0.5"/>
  <rect x="390.0" y="90.0" width="20.0" height="20.0" fill="#E0E0E0" stroke="#333" stroke-width="0.5"/>
  <rect x="410.0" y="90.0" width="20.0" height="20.0" fill="#F8F8F8" stroke="#333" stroke-width="0.5"/>
  <rect x="430.0" y="90.0" width="20.0" height="20.0" fill="#E0E0E0" stroke="#333" stroke-width="0.5"/>
  <rect x="390.0" y="110.0" width="20.0" height="20.0" fill="#F8F8F8" stroke="#333" stroke-width="0.5"/>
  <rect x="410.0" y="110.0" width="20.0" height="20.0" fill="#E0E0E0" stroke="#333" stroke-width="0.5"/>
  <rect x="430.0" y="110.0" width="20.0" height="20.0" fill="#F8F8F8" stroke="#333" stroke-width="0.5"/>
  <rect x="390.0" y="130.0" width="20.0" height="20.0" fill="#E0E0E0" stroke="#333" stroke-width="0.5"/>
  <rect x="410.0" y="130.0" width="20.0" height="20.0" fill="#F8F8F8" stroke="#333" stroke-width="0.5"/>
  <rect x="430.0" y="130.0" width="20.0" height="20.0" fill="#E0E0E0" stroke="#333" stroke-width="0.5"/>
  <rect x="30" y="150" width="60" height="60" fill="#B0B0B0" stroke="#333" stroke-width="0.5"/>
  <rect x="90.0" y="150.0" width="20.0" height="20.0" fill="#E0E0E0" stroke="#333" stroke-width="0.5"/>
  <rect x="110.0" y="150.0" width="20.0" height="20.0" fill="#F8F8F8" stroke="#333" stroke-width="0.5"/>
  <rect x="130.0" y="150.0" width="20.0" height="20.0" fill="#E0E0E0" stroke="#333" stroke-width="0.5"/>
  <rect x="90.0" y="170.0" width="20.0" height="20.0" fill="#F8F8F8" stroke="#333" stroke-width="0.5"/>
  <rect x="110.0" y="170.0" width="20.0" height="20.0" fill="#E0E0E0" stroke="#333" stroke-width="0.5"/>
  <rect x="130.0" y="170.0" width="20.0" height="20.0" fill="#F8F8F8" stroke="#333" stroke-width="0.5"/>
  <rect x="90.0" y="190.0" width="20.0" height="20.0" fill="#E0E0E0" stroke="#333" stroke-width="0.5"/>
  <rect x="110.0" y="190.0" width="20.0" height="20.0" fill="#F8F8F8" stroke="#333" stroke-width="0.5"/>
  <rect x="130.0" y="190.0" width="20.0" height="20.0" fill="#E0E0E0" stroke="#333" stroke-width="0.5"/>
  <polygon points="150,150 210,150 150,210" fill="#D0D0D0" stroke="#333" stroke-width="0.5"/>
  <polygon points="210,150 210,210 150,210" fill="#E0E0E0" stroke="#333" stroke-width="0.5"/>
  <rect x="210" y="150" width="60" height="60" fill="#A0A0A0" stroke="#333" stroke-width="1"/>
  <line x1="210" y1="180.0" x2="270" y2="180.0" stroke="#333" stroke-width="1"/>
  <polygon points="270,150 330,150 270,210" fill="#D0D0D0" stroke="#333" stroke-width="0.5"/>
  <polygon points="330,150 330,210 270,210" fill="#E0E0E0" stroke="#333" stroke-width="0.5"/>
  <rect x="330.0" y="150.0" width="20.0" height="20.0" fill="#E0E0E0" stroke="#333" stroke-width="0.5"/>
  <rect x="350.0" y="150.0" width="20.0" height="20.0" fill="#F8F8F8" stroke="#333" stroke-width="0.5"/>
  <rect x="370.0" y="150.0" width="20.0" height="20.0" fill="#E0E0E0" stroke="#333" stroke-width="0.5"/>
  <rect x="330.0" y="170.0" width="20.0" height="20.0" fill="#F8F8F8" stroke="#333" stroke-width="0.5"/>
  <rect x="350.0" y="170.0" width="20.0" height="20.0" fill="#E0E0E0" stroke="#333" stroke-width="0.5"/>
  <rect x="370.0" y="170.0" width="20.0" height="20.0" fill="#F8F8F8" stroke="#333" stroke-width="0.5"/>
  <rect x="330.0" y="190.0" width="20.0" height="20.0" fill="#E0E0E0" stroke="#333" stroke-width="0.5"/>
  <rect x="350.0" y="190.0" width="20.0" height="20.0" fill="#F8F8F8" stroke="#333" stroke-width="0.5"/>
  <rect x="370.0" y="190.0" width="20.0" height="20.0" fill="#E0E0E0" stroke="#333" stroke-width="0.5"/>
  <rect x="390" y="150" width="60" height="60" fill="#B0B0B0" stroke="#333" stroke-width="0.5"/>
  <rect x="30.0" y="210.0" width="20.0" height="20.0" fill="#E0E0E0" stroke="#333" stroke-width="0.5"/>
  <rect x="50.0" y="210.0" width="20.0" height="20.0" fill="#F8F8F8" stroke="#333" stroke-width="0.5"/>
  <rect x="70.0" y="210.0" width="20.0" height="20.0" fill="#E0E0E0" stroke="#333" stroke-width="0.5"/>
  <rect x="30.0" y="230.0" width="20.0" height="20.0" fill="#F8F8F8" stroke="#333" stroke-width="0.5"/>
  <rect x="50.0" y="230.0" width="20.0" height="20.0" fill="#E0E0E0" stroke="#333" stroke-width="0.5"/>
  <rect x="70.0" y="230.0" width="20.0" height="20.0" fill="#F8F8F8" stroke="#333" stroke-width="0.5"/>
  <rect x="30.0" y="250.0" width="20.0" height="20.0" fill="#E0E0E0" stroke="#333" stroke-width="0.5"/>
  <rect x="50.0" y="250.0" width="20.0" height="20.0" fill="#F8F8F8" stroke="#333" stroke-width="0.5"/>
  <rect x="70.0" y="250.0" width="20.0" height="20.0" fill="#E0E0E0" stroke="#333" stroke-width="0.5"/>
  <rect x="90" y="210" width="60" height="60" fill="#B0B0B0" stroke="#333" stroke-width="0.5"/>
  <polygon points="150,210 210,210 150,270" fill="#D0D0D0" stroke="#333" stroke-width="0.5"/>
  <polygon points="210,210 210,270 150,270" fill="#E0E0E0" stroke="#333" stroke-width="0.5"/>
  <rect x="210" y="210" width="60" height="60" fill="#A0A0A0" stroke="#333" stroke-width="1"/>
  <polygon points="270,210 330,210 270,270" fill="#D0D0D0" stroke="#333" stroke-width="0.5"/>
  <polygon points="330,210 330,270 270,270" fill="#E0E0E0" stroke="#333" stroke-width="0.5"/>
  <rect x="330" y="210" width="60" height="60" fill="#B0B0B0" stroke="#333" stroke-width="0.5"/>
  <rect x="390.0" y="210.0" width="20.0" height="20.0" fill="#E0E0E0" stroke="#333" stroke-width="0.5"/>
  <rect x="410.0" y="210.0" width="20.0" height="20.0" fill="#F8F8F8" stroke="#333" stroke-width="0.5"/>
  <rect x="430.0" y="210.0" width="20.0" height="20.0" fill="#E0E0E0" stroke="#333" stroke-width="0.5"/>
  <rect x="390.0" y="230.0" width="20.0" height="20.0" fill="#F8F8F8" stroke="#333" stroke-width="0.5"/>
  <rect x="410.0" y="230.0" width="20.0" height="20.0" fill="#E0E0E0" stroke="#333" stroke-width="0.5"/>
  <rect x="430.0" y="230.0" width="20.0" height="20.0" fill="#F8F8F8" stroke="#333" stroke-width="0.5"/>
  <rect x="390.0" y="250.0" width="20.0" height="20.0" fill="#E0E0E0" stroke="#333" stroke-width="0.5"/>
  <rect x="410.0" y="250.0" width="20.0" height="20.0" fill="#F8F8F8" stroke="#333" stroke-width="0.5"/>
  <rect x="430.0" y="250.0" width="20.0" height="20.0" fill="#E0E0E0" stroke="#333" stroke-width="0.5"/>
  <rect x="30" y="270" width="60" height="60" fill="#B0B0B0" stroke="#333" stroke-width="0.5"/>
  <rect x="90.0" y="270.0" width="20.0" height="20.0" fill="#E0E0E0" stroke="#333" stroke-width="0.5"/>
  <rect x="110.0" y="270.0" width="20.0" height="20.0" fill="#F8F8F8" stroke="#333" stroke-width="0.5"/>
  <rect x="130.0" y="270.0" width="20.0" height="20.0" fill="#E0E0E0" stroke="#333" stroke-width="0.5"/>
  <rect x="90.0" y="290.0" width="20.0" height="20.0" fill="#F8F8F8" stroke="#333" stroke-width="0.5"/>
  <rect x="110.0" y="290.0" width="20.0" height="20.0" fill="#E0E0E0" stroke="#333" stroke-width="0.5"/>
  <rect x="130.0" y="290.0" width="20.0" height="20.0" fill="#F8F8F8" stroke="#333" stroke-width="0.5"/>
  <rect x="90.0" y="310.0" width="20.0" height="20.0" fill="#E0E0E0" stroke="#333" stroke-width="0.5"/>
  <rect x="110.0" y="310.0" width="20.0" height="20.0" fill="#F8F8F8" stroke="#333" stroke-width="0.5"/>
  <rect x="130.0" y="310.0" width="20.0" height="20.0" fill="#E0E0E0" stroke="#333" stroke-width="0.5"/>
  <polygon points="150,270 210,270 150,330" fill="#D0D0D0" stroke="#333" stroke-width="0.5"/>
  <polygon points="210,270 210,330 150,330" fill="#E0E0E0" stroke="#333" stroke-width="0.5"/>
  <rect x="210" y="270" width="60" height="60" fill="#A0A0A0" stroke="#333" stroke-width="1"/>
  <line x1="210" y1="300.0" x2="270" y2="300.0" stroke="#333" stroke-width="1"/>
  <polygon points="270,270 330,270 270,330" fill="#D0D0D0" stroke="#333" stroke-width="0.5"/>
  <polygon points="330,270 330,330 270,330" fill="#E0E0E0" stroke="#333" stroke-width="0.5"/>
  <rect x="330.0" y="270.0" width="20.0" height="20.0" fill="#E0E0E0" stroke="#333" stroke-width="0.5"/>
  <rect x="350.0" y="270.0" width="20.0" height="20.0" fill="#F8F8F8" stroke="#333" stroke-width="0.5"/>
  <rect x="370.0" y="270.0" width="20.0" height="20.0" fill="#E0E0E0" stroke="#333" stroke-width="0.5"/>
  <rect x="330.0" y="290.0" width="20.0" height="20.0" fill="#F8F8F8" stroke="#333" stroke-width="0.5"/>
  <rect x="350.0" y="290.0" width="20.0" height="20.0" fill="#E0E0E0" stroke="#333" stroke-width="0.5"/>
  <rect x="370.0" y="290.0" width="20.0" height="20.0" fill="#F8F8F8" stroke="#333" stroke-width="0.5"/>
  <rect x="330.0" y="310.0" width="20.0" height="20.0" fill="#E0E0E0" stroke="#333" stroke-width="0.5"/>
  <rect x="350.0" y="310.0" width="20.0" height="20.0" fill="#F8F8F8" stroke="#333" stroke-width="0.5"/>
  <rect x="370.0" y="310.0" width="20.0" height="20.0" fill="#E0E0E0" stroke="#333" stroke-width="0.5"/>
  <rect x="390" y="270" width="60" height="60" fill="#B0B0B0" stroke="#333" stroke-width="0.5"/>
  <rect x="30.0" y="330.0" width="20.0" height="20.0" fill="#E0E0E0" stroke="#333" stroke-width="0.5"/>
  <rect x="50.0" y="330.0" width="20.0" height="20.0" fill="#F8F8F8" stroke="#333" stroke-width="0.5"/>
  <rect x="70.0" y="330.0" width="20.0" height="20.0" fill="#E0E0E0" stroke="#333" stroke-width="0.5"/>
  <rect x="30.0" y="350.0" width="20.0" height="20.0" fill="#F8F8F8" stroke="#333" stroke-width="0.5"/>
  <rect x="50.0" y="350.0" width="20.0" height="20.0" fill="#E0E0E0" stroke="#333" stroke-width="0.5"/>
  <rect x="70.0" y="350.0" width="20.0" height="20.0" fill="#F8F8F8" stroke="#333" stroke-width="0.5"/>
  <rect x="30.0" y="370.0" width="20.0" height="20.0" fill="#E0E0E0" stroke="#333" stroke-width="0.5"/>
  <rect x="50.0" y="370.0" width="20.0" height="20.0" fill="#F8F8F8" stroke="#333" stroke-width="0.5"/>
  <rect x="70.0" y="370.0" width="20.0" height="20.0" fill="#E0E0E0" stroke="#333" stroke-width="0.5"/>
  <rect x="90" y="330" width="60" height="60" fill="#B0B0B0" stroke="#333" stroke-width="0.5"/>
  <polygon points="150,330 210,330 150,390" fill="#D0D0D0" stroke="#333" stroke-width="0.5"/>
  <polygon points="210,330 210,390 150,390" fill="#E0E0E0" stroke="#333" stroke-width="0.5"/>
  <rect x="210" y="330" width="60" height="60" fill="#A0A0A0" stroke="#333" stroke-width="1"/>
  <polygon points="270,330 330,330 270,390" fill="#D0D0D0" stroke="#333" stroke-width="0.5"/>
  <polygon points="330,330 330,390 270,390" fill="#E0E0E0" stroke="#333" stroke-width="0.5"/>
  <rect x="330" y="330" width="60" height="60" fill="#B0B0B0" stroke="#333" stroke-width="0.5"/>
  <rect x="390.0" y="330.0" width="20.0" height="20.0" fill="#E0E0E0" stroke="#333" stroke-width="0.5"/>
  <rect x="410.0" y="330.0" width="20.0" height="20.0" fill="#F8F8F8" stroke="#333" stroke-width="0.5"/>
  <rect x="430.0" y="330.0" width="20.0" height="20.0" fill="#E0E0E0" stroke="#333" stroke-width="0.5"/>
  <rect x="390.0" y="350.0" width="20.0" height="20.0" fill="#F8F8F8" stroke="#333" stroke-width="0.5"/>
  <rect x="410.0" y="350.0" width="20.0" height="20.0" fill="#E0E0E0" stroke="#333" stroke-width="0.5"/>
  <rect x="430.0" y="350.0" width="20.0" height="20.0" fill="#F8F8F8" stroke="#333" stroke-width="0.5"/>
  <rect x="390.0" y="370.0" width="20.0" height="20.0" fill="#E0E0E0" stroke="#333" stroke-width="0.5"/>
  <rect x="410.0" y="370.0" width="20.0" height="20.0" fill="#F8F8F8" stroke="#333" stroke-width="0.5"/>
  <rect x="430.0" y="370.0" width="20.0" height="20.0" fill="#E0E0E0" stroke="#333" stroke-width="0.5"/>
  <rect x="30" y="390" width="60" height="60" fill="#B0B0B0" stroke="#333" stroke-width="0.5"/>
  <rect x="90.0" y="390.0" width="20.0" height="20.0" fill="#E0E0E0" stroke="#333" stroke-width="0.5"/>
  <rect x="110.0" y="390.0" width="20.0" height="20.0" fill="#F8F8F8" stroke="#333" stroke-width="0.5"/>
  <rect x="130.0" y="390.0" width="20.0" height="20.0" fill="#E0E0E0" stroke="#333" stroke-width="0.5"/>
  <rect x="90.0" y="410.0" width="20.0" height="20.0" fill="#F8F8F8" stroke="#333" stroke-width="0.5"/>
  <rect x="110.0" y="410.0" width="20.0" height="20.0" fill="#E0E0E0" stroke="#333" stroke-width="0.5"/>
  <rect x="130.0" y="410.0" width="20.0" height="20.0" fill="#F8F8F8" stroke="#333" stroke-width="0.5"/>
  <rect x="90.0" y="430.0" width="20.0" height="20.0" fill="#E0E0E0" stroke="#333" stroke-width="0.5"/>
  <rect x="110.0" y="430.0" width="20.0" height="20.0" fill="#F8F8F8" stroke="#333" stroke-width="0.5"/>
  <rect x="130.0" y="430.0" width="20.0" height="20.0" fill="#E0E0E0" stroke="#333" stroke-width="0.5"/>
  <polygon points="150,390 210,390 150,450" fill="#D0D0D0" stroke="#333" stroke-width="0.5"/>
  <polygon points="210,390 210,450 150,450" fill="#E0E0E0" stroke="#333" stroke-width="0.5"/>
  <rect x="210" y="390" width="60" height="60" fill="#A0A0A0" stroke="#333" stroke-width="1"/>
  <line x1="210" y1="420.0" x2="270" y2="420.0" stroke="#333" stroke-width="1"/>
  <polygon points="270,390 330,390 270,450" fill="#D0D0D0" stroke="#333" stroke-width="0.5"/>
  <polygon points="330,390 330,450 270,450" fill="#E0E0E0" stroke="#333" stroke-width="0.5"/>
  <rect x="330.0" y="390.0" width="20.0" height="20.0" fill="#E0E0E0" stroke="#333" stroke-width="0.5"/>
  <rect x="350.0" y="390.0" width="20.0" height="20.0" fill="#F8F8F8" stroke="#333" stroke-width="0.5"/>
  <rect x="370.0" y="390.0" width="20.0" height="20.0" fill="#E0E0E0" stroke="#333" stroke-width="0.5"/>
  <rect x="330.0" y="410.0" width="20.0" height="20.0" fill="#F8F8F8" stroke="#333" stroke-width="0.5"/>
  <rect x="350.0" y="410.0" width="20.0" height="20.0" fill="#E0E0E0" stroke="#333" stroke-width="0.5"/>
  <rect x="370.0" y="410.0" width="20.0" height="20.0" fill="#F8F8F8" stroke="#333" stroke-width="0.5"/>
  <rect x="330.0" y="430.0" width="20.0" height="20.0" fill="#E0E0E0" stroke="#333" stroke-width="0.5"/>
  <rect x="350.0" y="430.0" width="20.0" height="20.0" fill="#F8F8F8" stroke="#333" stroke-width="0.5"/>
  <rect x="370.0" y="430.0" width="20.0" height="20.0" fill="#E0E0E0" stroke="#333" stroke-width="0.5"/>
  <rect x="390" y="390" width="60" height="60" fill="#B0B0B0" stroke="#333" stroke-width="0.5"/>
  <rect x="30.0" y="450.0" width="20.0" height="20.0" fill="#E0E0E0" stroke="#333" stroke-width="0.5"/>
  <rect x="50.0" y="450.0" width="20.0" height="20.0" fill="#F8F8F8" stroke="#333" stroke-width="0.5"/>
  <rect x="70.0" y="450.0" width="20.0" height="20.0" fill="#E0E0E0" stroke="#333" stroke-width="0.5"/>
  <rect x="30.0" y="470.0" width="20.0" height="20.0" fill="#F8F8F8" stroke="#333" stroke-width="0.5"/>
  <rect x="50.0" y="470.0" width="20.0" height="20.0" fill="#E0E0E0" stroke="#333" stroke-width="0.5"/>
  <rect x="70.0" y="470.0" width="20.0" height="20.0" fill="#F8F8F8" stroke="#333" stroke-width="0.5"/>
  <rect x="30.0" y="490.0" width="20.0" height="20.0" fill="#E0E0E0" stroke="#333" stroke-width="0.5"/>
  <rect x="50.0" y="490.0" width="20.0" height="20.0" fill="#F8F8F8" stroke="#333" stroke-width="0.5"/>
  <rect x="70.0" y="490.0" width="20.0" height="20.0" fill="#E0E0E0" stroke="#333" stroke-width="0.5"/>
  <rect x="90" y="450" width="60" height="60" fill="#B0B0B0" stroke="#333" stroke-width="0.5"/>
  <polygon points="150,450 210,450 150,510" fill="#D0D0D0" stroke="#333" stroke-width="0.5"/>
  <polygon points="210,450 210,510 150,510" fill="#E0E0E0" stroke="#333" stroke-width="0.5"/>
  <rect x="210" y="450" width="60" height="60" fill="#A0A0A0" stroke="#333" stroke-width="1"/>
  <polygon points="270,450 330,450 270,510" fill="#D0D0D0" stroke="#333" stroke-width="0.5"/>
  <polygon points="330,450 330,510 270,510" fill="#E0E0E0" stroke="#333" stroke-width="0.5"/>
  <rect x="330" y="450" width="60" height="60" fill="#B0B0B0" stroke="#333" stroke-width="0.5"/>
  <rect x="390.0" y="450.0" width="20.0" height="20.0" fill="#E0E0E0" stroke="#333" stroke-width="0.5"/>
  <rect x="410.0" y="450.0" width="20.0" height="20.0" fill="#F8F8F8" stroke="#333" stroke-width="0.5"/>
  <rect x="430.0" y="450.0" width="20.0" height="20.0" fill="#E0E0E0" stroke="#333" stroke-width="0.5"/>
  <rect x="390.0" y="470.0" width="20.0" height="20.0" fill="#F8F8F8" stroke="#333" stroke-width="0.5"/>
  <rect x="410.0" y="470.0" width="20.0" height="20.0" fill="#E0E0E0" stroke="#333" stroke-width="0.5"/>
  <rect x="430.0" y="470.0" width="20.0" height="20.0" fill="#F8F8F8" stroke="#333" stroke-width="0.5"/>
  <rect x="390.0" y="490.0" width="20.0" height="20.0" fill="#E0E0E0" stroke="#333" stroke-width="0.5"/>
  <rect x="410.0" y="490.0" width="20.0" height="20.0" fill="#F8F8F8" stroke="#333" stroke-width="0.5"/>
  <rect x="430.0" y="490.0" width="20.0" height="20.0" fill="#E0E0E0" stroke="#333" stroke-width="0.5"/>
  <rect x="30" y="510" width="60" height="60" fill="#B0B0B0" stroke="#333" stroke-width="0.5"/>
  <rect x="90.0" y="510.0" width="20.0" height="20.0" fill="#E0E0E0" stroke="#333" stroke-width="0.5"/>
  <rect x="110.0" y="510.0" width="20.0" height="20.0" fill="#F8F8F8" stroke="#333" stroke-width="0.5"/>
  <rect x="130.0" y="510.0" width="20.0" height="20.0" fill="#E0E0E0" stroke="#333" stroke-width="0.5"/>
  <rect x="90.0" y="530.0" width="20.0" height="20.0" fill="#F8F8F8" stroke="#333" stroke-width="0.5"/>
  <rect x="110.0" y="530.0" width="20.0" height="20.0" fill="#E0E0E0" stroke="#333" stroke-width="0.5"/>
  <rect x="130.0" y="530.0" width="20.0" height="20.0" fill="#F8F8F8" stroke="#333" stroke-width="0.5"/>
  <rect x="90.0" y="550.0" width="20.0" height="20.0" fill="#E0E0E0" stroke="#333" stroke-width="0.5"/>
  <rect x="110.0" y="550.0" width="20.0" height="20.0" fill="#F8F8F8" stroke="#333" stroke-width="0.5"/>
  <rect x="130.0" y="550.0" width="20.0" height="20.0" fill="#E0E0E0" stroke="#333" stroke-width="0.5"/>
  <polygon points="150,510 210,510 150,570" fill="#D0D0D0" stroke="#333" stroke-width="0.5"/>
  <polygon points="210,510 210,570 150,570" fill="#E0E0E0" stroke="#333" stroke-width="0.5"/>
  <rect x="210" y="510" width="60" height="60" fill="#A0A0A0" stroke="#333" stroke-width="1"/>
  <line x1="210" y1="540.0" x2="270" y2="540.0" stroke="#333" stroke-width="1"/>
  <polygon points="270,510 330,510 270,570" fill="#D0D0D0" stroke="#333" stroke-width="0.5"/>
  <polygon points="330,510 330,570 270,570" fill="#E0E0E0" stroke="#333" stroke-width="0.5"/>
  <rect x="330.0" y="510.0" width="20.0" height="20.0" fill="#E0E0E0" stroke="#333" stroke-width="0.5"/>
  <rect x="350.0" y="510.0" width="20.0" height="20.0" fill="#F8F8F8" stroke="#333" stroke-width="0.5"/>
  <rect x="370.0" y="510.0" width="20.0" height="20.0" fill="#E0E0E0" stroke="#333" stroke-width="0.5"/>
  <rect x="330.0" y="530.0" width="20.0" height="20.0" fill="#F8F8F8" stroke="#333" stroke-width="0.5"/>
  <rect x="350.0" y="530.0" width="20.0" height="20.0" fill="#E0E0E0" stroke="#333" stroke-width="0.5"/>
  <rect x="370.0" y="530.0" width="20.0" height="20.0" fill="#F8F8F8" stroke="#333" stroke-width="0.5"/>
  <rect x="330.0" y="550.0" width="20.0" height="20.0" fill="#E0E0E0" stroke="#333" stroke-width="0.5"/>
  <rect x="350.0" y="550.0" width="20.0" height="20.0" fill="#F8F8F8" stroke="#333" stroke-width="0.5"/>
  <rect x="370.0" y="550.0" width="20.0" height="20.0" fill="#E0E0E0" stroke="#333" stroke-width="0.5"/>
  <rect x="390" y="510" width="60" height="60" fill="#B0B0B0" stroke="#333" stroke-width="0.5"/>
  <rect x="30.0" y="570.0" width="20.0" height="20.0" fill="#E0E0E0" stroke="#333" stroke-width="0.5"/>
  <rect x="50.0" y="570.0" width="20.0" height="20.0" fill="#F8F8F8" stroke="#333" stroke-width="0.5"/>
  <rect x="70.0" y="570.0" width="20.0" height="20.0" fill="#E0E0E0" stroke="#333" stroke-width="0.5"/>
  <rect x="30.0" y="590.0" width="20.0" height="20.0" fill="#F8F8F8" stroke="#333" stroke-width="0.5"/>
  <rect x="50.0" y="590.0" width="20.0" height="20.0" fill="#E0E0E0" stroke="#333" stroke-width="0.5"/>
  <rect x="70.0" y="590.0" width="20.0" height="20.0" fill="#F8F8F8" stroke="#333" stroke-width="0.5"/>
  <rect x="30.0" y="610.0" width="20.0" height="20.0" fill="#E0E0E0" stroke="#333" stroke-width="0.5"/>
  <rect x="50.0" y="610.0" width="20.0" height="20.0" fill="#F8F8F8" stroke="#333" stroke-width="0.5"/>
  <rect x="70.0" y="610.0" width="20.0" height="20.0" fill="#E0E0E0" stroke="#333" stroke-width="0.5"/>
  <rect x="90" y="570" width="60" height="60" fill="#B0B0B0" stroke="#333" stroke-width="0.5"/>
  <polygon points="150,570 210,570 150,630" fill="#D0D0D0" stroke="#333" stroke-width="0.5"/>
  <polygon points="210,570 210,630 150,630" fill="#E0E0E0" stroke="#333" stroke-width="0.5"/>
  <rect x="210" y="570" width="60" height="60" fill="#A0A0A0" stroke="#333" stroke-width="1"/>
  <polygon points="270,570 330,570 270,630" fill="#D0D0D0" stroke="#333" stroke-width="0.5"/>
  <polygon points="330,570 330,630 270,630" fill="#E0E0E0" stroke="#333" stroke-width="0.5"/>
  <rect x="330" y="570" width="60" height="60" fill="#B0B0B0" stroke="#333" stroke-width="0.5"/>
  <rect x="390.0" y="570.0" width="20.0" height="20.0" fill="#E0E0E0" stroke="#333" stroke-width="0.5"/>
  <rect x="410.0" y="570.0" width="20.0" height="20.0" fill="#F8F8F8" stroke="#333" stroke-width="0.5"/>
  <rect x="430.0" y="570.0" width="20.0" height="20.0" fill="#E0E0E0" stroke="#333" stroke-width="0.5"/>
  <rect x="390.0" y="590.0" width="20.0" height="20.0" fill="#F8F8F8" stroke="#333" stroke-width="0.5"/>
  <rect x="410.0" y="590.0" width="20.0" height="20.0" fill="#E0E0E0" stroke="#333" stroke-width="0.5"/>
  <rect x="430.0" y="590.0" width="20.0" height="20.0" fill="#F8F8F8" stroke="#333" stroke-width="0.5"/>
  <rect x="390.0" y="610.0" width="20.0" height="20.0" fill="#E0E0E0" stroke="#333" stroke-width="0.5"/>
  <rect x="410.0" y="610.0" width="20.0" height="20.0" fill="#F8F8F8" stroke="#333" stroke-width="0.5"/>
  <rect x="430.0" y="610.0" width="20.0" height="20.0" fill="#E0E0E0" stroke="#333" stroke-width="0.5"/>
</svg>