<svg xmlns="http://www.w3.org/2000/svg" viewBox="0 0 240 240" width="240" height="240">
  <rect x="0" y="0" width="60" height="60" fill="#F8F8F8" stroke="#333333" stroke-width="0.5" data-role="block-cell" data-shade="block-cell" />
  <rect x="60" y="0" width="60" height="60" fill="#B0B0B0" stroke="#333333" stroke-width="0.5" data-role="block-cell" data-shade="alternate-block" />
  <rect x="120" y="0" width="60" height="60" fill="#F8F8F8" stroke="#333333" stroke-width="0.5" data-role="block-cell" data-shade="block-cell" />
  <rect x="180" y="0" width="60" height="60" fill="#B0B0B0" stroke="#333333" stroke-width="0.5" data-role="block-cell" data-shade="alternate-block" />
  <rect x="0" y="60" width="60" height="60" fill="#B0B0B0" stroke="#333333" stroke-width="0.5" data-role="block-cell" data-shade="alternate-block" />
  <rect x="60" y="60" width="60" height="60" fill="#F8F8F8" stroke="#333333" stroke-width="0.5" data-role="block-cell" data-shade="block-cell" />
  <rect x="120" y="60" width="60" height="60" fill="#B0B0B0" stroke="#333333" stroke-width="0.5" data-role="block-cell" data-shade="alternate-block" />
  <rect x="180" y="60" width="60" height="60" fill="#F8F8F8" stroke="#333333" stroke-width="0.5" data-role="block-cell" data-shade="block-cell" />
  <rect x="0" y="120" width="60" height="60" fill="#F8F8F8" stroke="#333333" stroke-width="0.5" data-role="block-cell" data-shade="block-cell" />
  <rect x="60" y="120" width="60" height="60" fill="#B0B0B0" stroke="#333333" stroke-width="0.5" data-role="block-cell" data-shade="alternate-block" />
  <rect x="120" y="120" width="60" height="60" fill="#F8F8F8" stroke="#333333" stroke-width="0.5" data-role="block-cell" data-shade="block-cell" />
  <rect x="180" y="120" width="60" height="60" fill="#B0B0B0" stroke="#333333" stroke-width="0.5" data-role="block-cell" data-shade="alternate-block" />
  <rect x="0" y="180" width="60" height="60" fill="#B0B0B0" stroke="#333333" stroke-width="0.5" data-role="block-cell" data-shade="alternate-block" />
  <rect x="60" y="180" width="60" height="60" fill="#F8F8F8" stroke="#333333" stroke-width="0.5" data-role="block-cell" data-shade="block-cell" />
  <rect x="120" y="180" width="60" height="60" fill="#B0B0B0" stroke="#333333" stroke-width="0.5" data-role="block-cell" data-shade="alternate-block" />
  <rect x="180" y="180" width="60" height="60" fill="#F8F8F8" stroke="#333333" stroke-width="0.5" data-role="block-cell" data-shade="block-cell" />
</svg>