<svg xmlns="http://www.w3.org/2000/svg" viewBox="0 0 180 180" width="180" height="180">
  <rect x="0" y="0" width="20" height="180" fill="#E0E0E0" stroke="#333333" stroke-width="0.5" data-role="sashing" data-shade="sashing" />
  <rect x="40" y="0" width="20" height="180" fill="#E0E0E0" stroke="#333333" stroke-width="0.5" data-role="sashing" data-shade="sashing" />
  <rect x="80" y="0" width="20" height="180" fill="#E0E0E0" stroke="#333333" stroke-width="0.5" data-role="sashing" data-shade="sashing" />
  <rect x="120" y="0" width="20" height="180" fill="#E0E0E0" stroke="#333333" stroke-width="0.5" data-role="sashing" data-shade="sashing" />
  <rect x="160" y="0" width="20" height="180" fill="#E0E0E0" stroke="#333333" stroke-width="0.5" data-role="sashing" data-shade="sashing" />
  <rect x="0" y="0" width="40" height="40" fill="#F8F8F8" stroke="#333333" stroke-width="0.5" data-role="block-cell" data-shade="block-cell" />
  <rect x="60" y="0" width="40" height="40" fill="#F8F8F8" stroke="#333333" stroke-width="0.5" data-role="block-cell" data-shade="block-cell" />
  <rect x="120" y="0" width="40" height="40" fill="#F8F8F8" stroke="#333333" stroke-width="0.5" data-role="block-cell" data-shade="block-cell" />
  <rect x="0" y="60" width="40" height="40" fill="#F8F8F8" stroke="#333333" stroke-width="0.5" data-role="block-cell" data-shade="block-cell" />
  <rect x="60" y="60" width="40" height="40" fill="#F8F8F8" stroke="#333333" stroke-width="0.5" data-role="block-cell" data-shade="block-cell" />
  <rect x="120" y="60" width="40" height="40" fill="#F8F8F8" stroke="#333333" stroke-width="0.5" data-role="block-cell" data-shade="block-cell" />
  <rect x="0" y="120" width="40" height="40" fill="#F8F8F8" stroke="#333333" stroke-width="0.5" data-role="block-cell" data-shade="block-cell" />
  <rect x="60" y="120" width="40" height="40" fill="#F8F8F8" stroke="#333333" stroke-width="0.5" data-role="block-cell" data-shade="block-cell" />
  <rect x="120" y="120" width="40" height="40" fill="#F8F8F8" stroke="#333333" stroke-width="0.5" data-role="block-cell" data-shade="block-cell" />
  <rect x="0" y="40" width="180" height="20" fill="#E0E0E0" stroke="#333333" stroke-width="0.5" data-role="sashing" data-shade="sashing" />
  <rect x="0" y="100" width="180" height="20" fill="#E0E0E0" stroke="#333333" stroke-width="0.5" data-role="sashing" data-shade="sashing" />
  <rect x="0" y="160" width="180" height="20" fill="#E0E0E0" stroke="#333333" stroke-width="0.5" data-role="sashing" data-shade="sashing" />
</svg>