<svg xmlns="http://www.w3.org/2000/svg" viewBox="0 0 254.56 254.56" width="254.56" height="254.56">
  <polygon points="42.4,0 84.9,42.4 127.3,0" fill="#ECECEC" stroke="#333333" stroke-width="0.5" data-role="block-cell" data-shade="setting-triangle" />
  <polygon points="127.3,0 169.7,42.4 212.1,0" fill="#ECECEC" stroke="#333333" stroke-width="0.5" data-role="block-cell" data-shade="setting-triangle" />
  <polygon points="42.4,254.6 84.9,212.1 127.3,254.6" fill="#ECECEC" stroke="#333333" stroke-width="0.5" data-role="block-cell" data-shade="setting-triangle" />
  <polygon points="127.3,254.6 169.7,212.1 212.1,254.6" fill="#ECECEC" stroke="#333333" stroke-width="0.5" data-role="block-cell" data-shade="setting-triangle" />
  <polygon points="0,42.4 42.4,84.9 0,127.3" fill="#ECECEC" stroke="#333333" stroke-width="0.5" data-role="block-cell" data-shade="setting-triangle" />
  <polygon points="0,127.3 42.4,169.7 0,212.1" fill="#ECECEC" stroke="#333333" stroke-width="0.5" data-role="block-cell" data-shade="setting-triangle" />
  <polygon points="254.6,42.4 212.1,84.9 254.6,127.3" fill="#ECECEC" stroke="#333333" stroke-width="0.5" data-role="block-cell" data-shade="setting-triangle" />
  <polygon points="254.6,127.3 212.1,169.7 254.6,212.1" fill="#ECECEC" stroke="#333333" stroke-width="0.5" data-role="block-cell" data-shade="setting-triangle" />
  <polygon points="0,0 42.4,0 0,42.4" fill="#E0E0E0" stroke="#333333" stroke-width="0.5" data-role="block-cell" data-shade="setting-corner" />
  <polygon points="254.6,0 212.1,0 254.6,42.4" fill="#E0E0E0" stroke="#333333" stroke-width="0.5" data-role="block-cell" data-shade="setting-corner" />
  <polygon points="0,254.6 42.4,254.6 0,212.1" fill="#E0E0E0" stroke="#333333" stroke-width="0.5" data-role="block-cell" data-shade="setting-corner" />
  <polygon points="254.6,254.6 212.1,254.6 254.6,212.1" fill="#E0E0E0" stroke="#333333" stroke-width="0.5" data-role="block-cell" data-shade="setting-corner" />
  <polygon points="42.4,12.4 72.4,42.4 42.4,72.4 12.4,42.4" fill="#F8F8F8" stroke="#333333" stroke-width="0.5" data-role="block-cell" data-shade="block-cell" />
  <polygon points="127.3,12.4 157.3,42.4 127.3,72.4 97.3,42.4" fill="#F8F8F8" stroke="#333333" stroke-width="0.5" data-role="block-cell" data-shade="block-cell" />
  <polygon points="212.1,12.4 242.1,42.4 212.1,72.4 182.1,42.4" fill="#F8F8F8" stroke="#333333" stroke-width="0.5" data-role="block-cell" data-shade="block-cell" />
  <polygon points="42.4,97.3 72.4,127.3 42.4,157.3 12.4,127.3" fill="#F8F8F8" stroke="#333333" stroke-width="0.5" data-role="block-cell" data-shade="block-cell" />
  <polygon points="127.3,97.3 157.3,127.3 127.3,157.3 97.3,127.3" fill="#F8F8F8" stroke="#333333" stroke-width="0.5" data-role="block-cell" data-shade="block-cell" />
  <polygon points="212.1,97.3 242.1,127.3 212.1,157.3 182.1,127.3" fill="#F8F8F8" stroke="#333333" stroke-width="0.5" data-role="block-cell" data-shade="block-cell" />
  <polygon points="42.4,182.1 72.4,212.1 42.4,242.1 12.4,212.1" fill="#F8F8F8" stroke="#333333" stroke-width="0.5" data-role="block-cell" data-shade="block-cell" />
  <polygon points="127.3,182.1 157.3,212.1 127.3,242.1 97.3,212.1" fill="#F8F8F8" stroke="#333333" stroke-width="0.5" data-role="block-cell" data-shade="block-cell" />
  <polygon points="212.1,182.1 242.1,212.1 212.1,242.1 182.1,212.1" fill="#F8F8F8" stroke="#333333" stroke-width="0.5" data-role="block-cell" data-shade="block-cell" />
</svg>
